<?xml version="1.0" encoding="UTF-8"?>
<svg id="Ebene_1" data-name="Ebene 1" xmlns="http://www.w3.org/2000/svg" viewBox="0 0 641.061 202.913">
  <g>
    <polygon points="152.974 147.413 152.974 120.257 148.476 120.257 148.476 110.757 168.574 110.757 168.574 120.257 164.388 120.257 164.388 128.622 178.051 128.622 178.051 120.257 173.762 120.257 173.762 110.757 193.963 110.757 193.963 120.257 189.397 120.257 189.397 147.413 193.963 147.413 193.963 156.949 173.762 156.949 173.762 147.413 178.051 147.413 178.051 138.12 164.388 138.12 164.388 147.413 168.642 147.413 168.642 156.949 148.476 156.949 148.476 147.413 152.974 147.413 152.974 147.413" style="fill: #fff; fill-rule: evenodd;"/>
    <path d="m203.163,119.327v-8.57h10.1v8.57h-10.1Zm0,28.225v-16.9h-4.358v-9.328h14.458v26.228h4.532v9.396h-19.128v-9.396h4.497Z" style="fill: #fff; fill-rule: evenodd;"/>
    <polygon points="227.515 147.552 227.515 120.12 223.122 120.12 223.122 110.757 237.615 110.757 237.615 147.552 242.146 147.552 242.146 156.949 223.018 156.949 223.018 147.552 227.515 147.552 227.515 147.552" style="fill: #fff; fill-rule: evenodd;"/>
    <polygon points="250.413 130.652 245.848 130.652 245.848 121.324 250.413 121.324 250.413 120.532 250.448 119.81 250.517 119.087 250.621 118.433 250.725 117.779 250.863 117.159 251.001 116.54 251.209 115.99 251.417 115.439 251.659 114.956 251.901 114.475 252.177 113.993 252.489 113.58 252.835 113.201 253.181 112.824 253.561 112.479 253.976 112.169 254.426 111.859 254.91 111.583 255.429 111.343 255.982 111.102 256.571 110.896 257.193 110.689 257.85 110.517 258.542 110.345 259.268 110.206 260.029 110.104 260.825 110.034 261.655 109.931 262.52 109.898 263.419 109.863 264.353 109.863 266.533 109.863 266.533 118.054 266.533 118.054 266.497 118.054 266.497 118.054 266.463 118.054 266.429 118.054 266.394 118.054 266.394 118.054 266.359 118.054 265.979 118.021 265.633 117.986 265.356 117.95 265.079 117.95 264.803 117.917 264.596 117.917 264.422 117.917 264.25 117.917 263.765 117.917 263.281 117.95 262.866 118.021 262.485 118.089 262.14 118.193 261.828 118.296 261.586 118.468 261.344 118.64 261.136 118.812 260.998 119.052 260.825 119.294 260.722 119.603 260.618 119.949 260.583 120.292 260.548 120.671 260.514 121.118 260.514 121.324 265.564 121.324 265.564 130.652 260.514 130.652 260.514 147.552 265.495 147.552 265.495 156.949 245.848 156.949 245.848 147.552 250.413 147.552 250.413 130.652 250.413 130.652" style="fill: #fff; fill-rule: evenodd;"/>
    <polygon points="269.265 146.003 278.95 146.003 278.985 146.45 279.054 146.898 279.123 147.277 279.262 147.656 279.434 147.999 279.608 148.343 279.815 148.618 280.057 148.894 280.334 149.136 280.645 149.341 280.956 149.48 281.337 149.652 281.717 149.755 282.133 149.824 282.582 149.859 283.032 149.892 283.482 149.859 283.932 149.824 284.311 149.788 284.658 149.687 285.003 149.583 285.315 149.445 285.591 149.273 285.869 149.066 286.076 148.861 286.283 148.618 286.456 148.378 286.595 148.103 286.698 147.792 286.767 147.484 286.837 147.105 286.837 146.761 286.802 146.486 286.767 146.21 286.664 145.968 286.526 145.728 286.352 145.488 286.145 145.245 285.903 145.04 285.626 144.833 285.315 144.626 284.969 144.419 284.554 144.247 284.139 144.04 283.654 143.904 283.17 143.732 282.617 143.56 282.029 143.421 281.579 143.318 281.129 143.214 280.715 143.113 280.334 143.009 279.988 142.906 279.642 142.837 279.366 142.734 279.054 142.665 277.843 142.286 276.702 141.872 276.148 141.632 275.63 141.425 275.145 141.185 274.661 140.909 274.211 140.667 273.762 140.392 273.347 140.116 272.966 139.808 272.586 139.497 272.24 139.189 271.929 138.878 271.617 138.568 271.306 138.224 271.029 137.845 270.787 137.501 270.545 137.122 270.337 136.71 270.13 136.331 269.957 135.917 269.819 135.47 269.68 135.023 269.542 134.575 269.438 134.128 269.369 133.646 269.3 133.165 269.265 132.648 269.23 132.132 269.196 131.616 269.23 130.995 269.265 130.376 269.334 129.792 269.438 129.206 269.542 128.656 269.68 128.105 269.853 127.589 270.061 127.072 270.303 126.556 270.545 126.074 270.821 125.593 271.133 125.146 271.444 124.699 271.825 124.284 272.205 123.872 272.62 123.493 273.036 123.115 273.519 122.771 273.969 122.425 274.453 122.116 274.973 121.841 275.492 121.599 276.01 121.359 276.563 121.152 277.151 120.98 277.74 120.808 278.328 120.704 278.95 120.568 279.573 120.499 280.23 120.429 280.922 120.396 281.614 120.396 282.167 120.396 282.686 120.429 283.204 120.464 283.724 120.532 284.208 120.601 284.692 120.704 285.141 120.808 285.591 120.947 286.041 121.083 286.491 121.255 286.906 121.427 287.321 121.634 287.736 121.874 288.151 122.116 288.566 122.392 288.981 122.667 288.981 121.187 296.418 121.187 296.418 131.306 286.975 131.306 286.871 130.894 286.802 130.48 286.664 130.136 286.56 129.792 286.422 129.517 286.248 129.241 286.11 128.999 285.903 128.794 285.695 128.622 285.488 128.484 285.245 128.345 284.969 128.243 284.658 128.173 284.347 128.105 284 128.072 283.654 128.072 283.274 128.072 282.928 128.105 282.582 128.173 282.271 128.243 281.96 128.345 281.683 128.484 281.406 128.622 281.164 128.794 280.956 128.999 280.784 129.206 280.611 129.413 280.472 129.654 280.368 129.896 280.299 130.171 280.265 130.445 280.23 130.72 280.265 131.099 280.299 131.445 280.403 131.753 280.507 132.064 280.645 132.339 280.818 132.579 281.06 132.82 281.303 133.027 281.614 133.269 281.994 133.474 282.513 133.681 283.101 133.921 283.793 134.163 284.554 134.404 285.419 134.644 286.387 134.886 288.013 135.333 289.466 135.781 290.158 136.021 290.814 136.296 291.437 136.538 292.025 136.814 292.579 137.054 293.132 137.329 293.617 137.605 294.066 137.915 294.516 138.191 294.896 138.499 295.277 138.81 295.588 139.118 295.899 139.429 296.176 139.773 296.453 140.116 296.695 140.495 296.937 140.874 297.144 141.288 297.318 141.7 297.491 142.115 297.629 142.562 297.767 143.042 297.871 143.525 297.974 144.007 298.044 144.523 298.078 145.074 298.113 145.624 298.113 146.175 298.113 146.829 298.044 147.449 297.974 148.068 297.871 148.654 297.767 149.238 297.594 149.788 297.422 150.339 297.214 150.89 296.972 151.407 296.695 151.923 296.383 152.406 296.073 152.886 295.692 153.335 295.311 153.782 294.896 154.23 294.481 154.642 293.997 155.021 293.513 155.4 293.028 155.743 292.509 156.054 291.991 156.329 291.437 156.605 290.849 156.845 290.296 157.052 289.673 157.259 289.085 157.431 288.428 157.568 287.771 157.671 287.114 157.775 286.422 157.81 285.73 157.878 285.003 157.878 284.45 157.878 283.862 157.843 283.308 157.775 282.79 157.706 282.236 157.603 281.717 157.499 281.233 157.361 280.749 157.189 280.265 157.017 279.78 156.81 279.33 156.605 278.881 156.363 278.431 156.087 277.981 155.812 277.532 155.503 277.117 155.159 277.117 156.949 269.265 156.949 269.265 146.003 269.265 146.003" style="fill: #fff; fill-rule: evenodd;"/>
    <polygon points="321.946 156.949 311.88 156.949 303.474 130.652 300.361 130.652 300.361 121.324 316.342 121.324 316.342 130.652 313.471 130.652 317.31 144.626 323.537 121.324 332.253 121.324 338.479 144.626 342.353 130.652 339.482 130.652 339.482 121.324 355.429 121.324 355.429 130.652 352.315 130.652 343.91 156.949 333.845 156.949 327.895 136.435 321.946 156.949 321.946 156.949" style="fill: #fff; fill-rule: evenodd;"/>
    <path d="m393.166,146.347l-.311.689-.311.652-.346.621-.381.619-.381.584-.38.586-.415.551-.415.516-.449.517-.485.516-.483.482-.484.447-.52.447-.553.447-.554.379-.588.412-.588.346-.588.344-.623.308-.588.311-.657.275-.623.24-.657.207-.656.207-.692.172-.657.172-.691.139-.727.102-.692.07-.726.068-.727.035h-.761l-1.038-.035-1.003-.035-.969-.103-.934-.172-.935-.172-.899-.24-.899-.275-.829-.311-.831-.344-.83-.379-.796-.447-.761-.482-.761-.551-.727-.551-.726-.619-.691-.687-.657-.654-.623-.723-.588-.689-.519-.756-.484-.758-.449-.791-.415-.826-.381-.826-.311-.826-.276-.894-.242-.861-.208-.894-.138-.93-.104-.963-.068-.93-.035-.998.035-.965.068-.928.104-.965.138-.895.208-.895.242-.894.276-.897.346-.826.381-.859.381-.791.484-.793.483-.791.519-.723.553-.723.623-.689.657-.687.691-.619.692-.621.761-.551.761-.516.796-.482.83-.447.83-.412.865-.379.898-.344.899-.275.899-.242.934-.205.899-.139.969-.137.935-.035.969-.035,1.21.035,1.211.103.588.068.588.104.589.103.553.137.588.139.554.172.553.172.554.207.554.207.519.24.553.24.518.242.52.309.519.275.484.311.484.309.484.346.449.344.45.379.449.379.415.377.415.414.415.412.381.414.38.447.346.447.347.482.346.482.381.584.346.586.311.584.31.586.277.619.242.619.242.654.207.619.174.654.138.689.139.687.103.687.068.689.07.723.034.758v1.652l-.034.24v.482l-.035.24-.035.24v.275l-.034.242-.034.275-.034.275-.035.275-.034.275-.035.275h-26.427l.174.584.241.551.276.518.311.516.381.447.415.447.45.414.483.377.554.311.554.31.588.24.623.207.622.172.657.103.657.068h1.453l.381-.068.346-.035.346-.068.346-.103.346-.104.312-.104.346-.137.311-.139.312-.172.311-.172.31-.207.311-.205.312-.242.311-.275h12.348Zm-25.631-10.842h15.946l-.208-.687-.242-.689-.311-.619-.311-.586-.38-.516-.416-.516-.449-.447-.519-.414-.519-.344-.588-.31-.588-.275-.623-.205-.657-.174-.726-.137-.727-.068-.761-.035-.692.035-.692.068-.656.137-.623.174-.622.205-.588.275-.554.31-.519.379-.519.412-.484.482-.415.482-.381.516-.346.586-.311.619-.277.654-.242.687h0Z" style="fill: #fff; fill-rule: evenodd;"/>
    <polygon points="400.395 147.552 400.395 130.652 396.314 130.652 396.314 121.324 410.012 121.324 410.012 126.488 410.392 125.765 410.807 125.146 411.223 124.525 411.672 123.974 412.191 123.493 412.676 123.011 413.228 122.599 413.816 122.22 414.404 121.909 415.027 121.599 415.72 121.359 416.411 121.152 417.172 120.98 417.968 120.876 418.798 120.773 419.663 120.74 419.663 130.618 419.074 130.652 418.486 130.72 417.932 130.79 417.379 130.894 416.86 130.995 416.377 131.099 415.891 131.238 415.442 131.374 415.027 131.546 414.612 131.718 414.232 131.925 413.851 132.132 413.505 132.372 413.194 132.615 412.883 132.855 412.605 133.13 412.329 133.441 412.087 133.749 411.88 134.06 411.672 134.439 411.465 134.818 411.292 135.195 411.118 135.609 410.98 136.056 410.877 136.538 410.738 137.019 410.669 137.501 410.599 138.017 410.53 138.568 410.496 139.154 410.462 139.74 410.462 140.324 410.462 147.552 414.578 147.552 414.578 156.949 395.864 156.949 395.864 147.552 400.395 147.552 400.395 147.552" style="fill: #fff; fill-rule: evenodd;"/>
    <polygon points="426.641 147.552 426.641 120.12 422.284 120.12 422.284 110.757 436.673 110.757 436.673 137.673 444.075 130.068 440.028 130.068 440.028 121.324 458.292 121.324 458.292 130.652 454.418 130.652 447.119 138.292 454.313 147.552 459.398 147.552 459.398 156.949 449.298 156.949 436.673 140.978 436.673 156.949 422.076 156.949 422.076 147.552 426.641 147.552 426.641 147.552" style="fill: #fff; fill-rule: evenodd;"/>
    <polygon points="70.513 83.291 74.837 83.291 74.837 92.86 54.775 92.86 54.775 83.291 59.098 83.291 59.098 56.169 54.775 56.169 54.775 62.468 46.439 62.468 46.439 46.669 83.208 46.669 83.208 62.468 74.837 62.468 74.837 56.169 70.513 56.169 70.513 83.291 70.513 83.291" style="fill: #fff; fill-rule: evenodd;"/>
    <path d="m119.497,82.259l-.311.654-.312.654-.346.619-.346.62-.38.62-.38.551-.415.551-.45.551-.45.516-.45.516-.484.448-.518.482-.519.447-.519.413-.554.413-.588.378-.588.378-.588.344-.622.31-.623.275-.623.275-.657.241-.622.241-.692.206-.657.172-.692.138-.692.138-.692.103-.726.103-.727.034-.726.035-.726.034-1.038-.034-1.003-.069-.968-.103-.969-.138-.934-.206-.899-.207-.865-.275-.865-.31-.83-.344-.796-.413-.795-.447-.761-.482-.761-.516-.761-.585-.692-.619-.726-.654-.657-.688-.588-.689-.588-.723-.519-.757-.519-.757-.45-.791-.415-.792-.346-.826-.346-.86-.277-.86-.242-.895-.173-.895-.173-.929-.104-.929-.069-.964v-1.927l.069-.964.138-.929.139-.93.208-.894.242-.895.276-.86.312-.861.38-.826.415-.826.45-.792.484-.757.553-.757.554-.688.623-.723.623-.654.692-.654.727-.585.726-.551.795-.551.761-.482.83-.447.83-.413.899-.378.865-.31.899-.309.899-.241.934-.172.934-.172.934-.103.968-.069.969-.035,1.21.035,1.211.103.588.103.554.069.588.138.588.103.553.138.554.172.588.172.519.206.553.207.554.241.519.241.554.275.519.275.484.309.519.31.484.31.484.344.45.344.45.344.414.378.45.378.415.414.381.413.38.448.38.447.38.448.346.481.311.482.38.551.346.585.346.585.312.619.242.585.277.654.207.62.207.654.173.654.173.654.103.688.104.688.104.723.034.723.035.723.035.757v.448l-.035.241v.688l-.035.241v.275l-.034.241-.035.241-.035.275v.275l-.035.275-.035.275-.034.275-.035.275h-26.427l.173.585.242.551.243.516.346.482.346.482.415.413.45.413.519.378.553.344.554.275.588.275.588.206.623.138.658.103.691.069.692.035h.38l.381-.035.346-.034.346-.069.38-.069.346-.069.311-.103.346-.138.311-.104.346-.172.311-.138.311-.207.311-.206.311-.206.312-.241.311-.241h12.313Zm-25.631-10.842h15.98l-.207-.723-.277-.654-.276-.62-.346-.585-.38-.551-.415-.482-.45-.448-.484-.413-.553-.379-.554-.31-.588-.275-.657-.207-.657-.172-.692-.103-.726-.069-.761-.034-.727.034-.657.069-.658.103-.657.172-.588.241-.588.275-.554.31-.553.378-.519.413-.45.447-.449.482-.381.551-.346.585-.311.62-.277.654-.242.688h0Z" style="fill: #fff; fill-rule: evenodd;"/>
    <polygon points="161.429 79.849 161.186 80.641 160.944 81.432 160.668 82.19 160.356 82.947 160.045 83.635 159.699 84.358 159.319 85.012 158.904 85.666 158.489 86.285 158.039 86.905 157.555 87.49 157.07 88.041 156.517 88.557 155.998 89.074 155.41 89.59 154.822 90.037 154.199 90.485 153.576 90.898 152.919 91.276 152.262 91.655 151.571 91.965 150.879 92.275 150.152 92.55 149.426 92.791 148.7 92.997 147.938 93.204 147.143 93.342 146.347 93.479 145.552 93.582 144.722 93.651 143.857 93.686 143.027 93.72 141.989 93.686 140.986 93.617 140.017 93.513 139.083 93.376 138.15 93.169 137.25 92.928 136.351 92.653 135.486 92.344 134.656 91.999 133.826 91.586 133.03 91.139 132.269 90.657 131.508 90.14 130.782 89.59 130.055 88.97 129.364 88.316 128.706 87.628 128.084 86.94 127.531 86.217 126.977 85.46 126.493 84.702 126.043 83.911 125.628 83.119 125.282 82.293 124.936 81.432 124.659 80.572 124.417 79.677 124.244 78.782 124.071 77.853 123.968 76.924 123.898 75.96 123.898 74.996 123.898 74.032 123.968 73.069 124.071 72.139 124.244 71.21 124.417 70.315 124.659 69.454 124.936 68.594 125.247 67.768 125.594 66.942 126.008 66.15 126.458 65.359 126.942 64.601 127.495 63.844 128.084 63.087 128.706 62.364 129.364 61.676 130.021 61.022 130.678 60.437 131.37 59.886 132.096 59.37 132.823 58.853 133.583 58.44 134.345 58.027 135.14 57.649 135.936 57.339 136.731 57.064 137.561 56.823 138.426 56.616 139.256 56.478 140.121 56.375 140.986 56.306 141.885 56.272 142.577 56.306 143.303 56.341 143.995 56.409 144.652 56.547 145.31 56.685 145.967 56.857 146.624 57.064 147.247 57.304 147.835 57.58 148.457 57.855 149.011 58.199 149.599 58.578 150.152 58.991 150.671 59.404 151.224 59.886 151.709 60.368 151.709 57.201 159.803 57.201 159.803 70.315 150.152 70.315 149.875 69.799 149.564 69.351 149.253 68.904 148.907 68.525 148.526 68.147 148.146 67.803 147.731 67.493 147.316 67.217 146.866 66.942 146.416 66.736 145.932 66.563 145.413 66.426 144.894 66.288 144.376 66.219 143.822 66.15 143.234 66.15 142.784 66.15 142.335 66.185 141.92 66.219 141.505 66.288 141.09 66.391 140.675 66.494 140.26 66.632 139.879 66.77 139.498 66.942 139.153 67.148 138.772 67.355 138.426 67.596 138.08 67.837 137.769 68.112 137.457 68.387 137.112 68.698 136.835 69.007 136.558 69.351 136.282 69.696 136.039 70.04 135.832 70.418 135.624 70.762 135.451 71.176 135.279 71.554 135.14 71.933 135.002 72.345 134.898 72.759 134.829 73.206 134.76 73.619 134.69 74.067 134.656 74.514 134.656 74.996 134.656 75.444 134.69 75.926 134.76 76.373 134.794 76.786 134.898 77.233 135.002 77.646 135.105 78.059 135.279 78.472 135.417 78.851 135.59 79.23 135.797 79.608 136.005 79.952 136.247 80.297 136.489 80.641 136.766 80.985 137.077 81.295 137.354 81.605 137.7 81.88 138.011 82.155 138.357 82.396 138.668 82.603 139.014 82.809 139.395 83.016 139.741 83.188 140.121 83.325 140.502 83.463 140.916 83.567 141.297 83.67 141.712 83.739 142.162 83.773 142.577 83.807 143.027 83.807 143.546 83.807 144.099 83.739 144.618 83.67 145.137 83.567 145.621 83.394 146.105 83.222 146.555 83.016 147.004 82.775 147.454 82.499 147.835 82.224 148.215 81.88 148.561 81.536 148.907 81.157 149.218 80.744 149.495 80.297 149.737 79.849 161.429 79.849 161.429 79.849" style="fill: #fff; fill-rule: evenodd;"/>
    <polygon points="167.107 83.428 167.107 56.031 162.749 56.031 162.749 46.669 177.173 46.669 177.173 61.4 177.623 60.815 178.107 60.264 178.591 59.748 179.11 59.301 179.663 58.853 180.217 58.475 180.805 58.096 181.428 57.786 182.05 57.511 182.707 57.27 183.365 57.064 184.057 56.891 184.783 56.754 185.544 56.685 186.305 56.616 187.1 56.582 187.827 56.616 188.553 56.651 189.21 56.72 189.902 56.823 190.525 56.926 191.147 57.098 191.77 57.27 192.358 57.476 192.911 57.718 193.431 57.959 193.949 58.268 194.468 58.578 194.952 58.922 195.402 59.301 195.817 59.679 196.232 60.127 196.613 60.574 196.993 61.056 197.339 61.538 197.65 62.054 197.927 62.605 198.204 63.19 198.411 63.775 198.654 64.395 198.827 65.049 198.999 65.703 199.138 66.426 199.242 67.114 199.31 67.871 199.38 68.628 199.414 69.42 199.449 70.246 199.449 83.428 203.98 83.428 203.98 92.86 189.037 92.86 189.037 73.241 189.037 72.277 188.968 71.382 188.864 70.556 188.726 69.799 188.553 69.145 188.311 68.525 188.207 68.25 188.069 68.009 187.896 67.768 187.758 67.561 187.585 67.355 187.411 67.148 187.204 66.976 186.997 66.804 186.789 66.667 186.547 66.529 186.305 66.426 186.028 66.288 185.474 66.116 184.852 65.978 184.161 65.909 183.434 65.875 182.742 65.909 182.085 66.012 181.739 66.081 181.462 66.15 181.151 66.254 180.84 66.391 180.563 66.529 180.286 66.667 180.044 66.804 179.802 67.011 179.525 67.183 179.318 67.389 179.076 67.63 178.868 67.871 178.661 68.112 178.453 68.387 178.28 68.663 178.107 68.938 177.83 69.558 177.588 70.212 177.381 70.9 177.277 71.623 177.173 72.415 177.173 73.241 177.173 83.428 181.255 83.428 181.255 92.86 162.541 92.86 162.541 83.428 167.107 83.428 167.107 83.428" style="fill: #fff; fill-rule: evenodd;"/>
    <polygon points="212.627 83.428 212.627 66.563 208.235 66.563 208.235 57.201 222.209 57.201 222.209 61.917 222.659 61.263 223.143 60.678 223.662 60.093 224.181 59.576 224.734 59.095 225.322 58.647 225.91 58.268 226.533 57.924 227.19 57.615 227.882 57.339 228.574 57.098 229.3 56.926 230.061 56.788 230.857 56.685 231.687 56.616 232.517 56.582 233.278 56.616 233.97 56.651 234.661 56.72 235.354 56.823 235.976 56.926 236.633 57.098 237.222 57.27 237.809 57.476 238.363 57.718 238.916 57.993 239.435 58.268 239.919 58.578 240.404 58.922 240.853 59.301 241.303 59.714 241.718 60.127 242.098 60.574 242.479 61.056 242.79 61.573 243.136 62.089 243.412 62.639 243.69 63.225 243.897 63.81 244.14 64.429 244.312 65.083 244.485 65.737 244.623 66.426 244.727 67.148 244.831 67.871 244.866 68.628 244.935 69.42 244.935 70.246 244.935 83.428 249.501 83.428 249.501 92.86 234.557 92.86 234.557 73.241 234.523 72.277 234.454 71.382 234.35 70.556 234.212 69.799 234.039 69.145 233.797 68.525 233.693 68.25 233.555 68.009 233.416 67.768 233.244 67.561 233.07 67.355 232.898 67.148 232.69 66.976 232.482 66.804 232.275 66.667 232.033 66.529 231.79 66.426 231.514 66.288 230.961 66.116 230.338 65.978 229.646 65.909 228.92 65.875 228.228 65.909 227.571 66.012 227.259 66.081 226.948 66.15 226.637 66.254 226.36 66.391 226.083 66.529 225.807 66.667 225.53 66.804 225.288 67.011 225.046 67.183 224.804 67.389 224.561 67.63 224.354 67.871 224.146 68.112 223.973 68.387 223.766 68.663 223.627 68.938 223.316 69.558 223.074 70.212 222.901 70.9 222.763 71.623 222.693 72.415 222.659 73.241 222.659 83.428 226.775 83.428 226.775 92.86 208.062 92.86 208.062 83.428 212.627 83.428 212.627 83.428" style="fill: #fff; fill-rule: evenodd;"/>
    <path d="m257.595,55.24v-8.571h10.101v8.571h-10.101Zm0,28.189v-16.865h-4.358v-9.362h14.458v26.227h4.531v9.431h-19.128v-9.431h4.496Z" style="fill: #fff; fill-rule: evenodd;"/>
    <polygon points="275.858 81.88 285.509 81.88 285.578 82.362 285.613 82.775 285.717 83.188 285.855 83.567 285.993 83.911 286.201 84.22 286.409 84.53 286.65 84.771 286.927 85.012 287.239 85.219 287.55 85.39 287.93 85.528 288.31 85.632 288.726 85.735 289.176 85.769 289.625 85.769 290.075 85.769 290.49 85.735 290.905 85.666 291.251 85.563 291.597 85.46 291.908 85.322 292.185 85.15 292.462 84.978 292.669 84.771 292.877 84.53 293.05 84.255 293.188 83.979 293.291 83.67 293.361 83.36 293.395 83.016 293.43 82.637 293.395 82.362 293.361 82.121 293.257 81.845 293.119 81.605 292.946 81.364 292.738 81.157 292.496 80.916 292.22 80.71 291.908 80.503 291.528 80.331 291.147 80.124 290.732 79.952 290.247 79.781 289.729 79.608 289.21 79.47 288.622 79.333 288.138 79.195 287.723 79.092 287.308 78.989 286.927 78.886 286.581 78.817 286.235 78.713 285.924 78.644 285.647 78.541 284.436 78.162 283.295 77.75 282.742 77.543 282.223 77.302 281.739 77.061 281.254 76.82 280.805 76.545 280.355 76.27 279.94 75.994 279.559 75.719 279.179 75.409 278.833 75.099 278.487 74.789 278.176 74.445 277.899 74.101 277.622 73.757 277.38 73.378 277.138 73 276.931 72.621 276.723 72.208 276.55 71.795 276.377 71.382 276.239 70.934 276.135 70.487 276.031 70.005 275.962 69.523 275.893 69.042 275.824 68.56 275.789 68.043 275.789 67.493 275.824 66.873 275.858 66.288 275.927 65.703 275.996 65.117 276.135 64.567 276.274 64.016 276.446 63.466 276.654 62.949 276.862 62.468 277.138 61.986 277.415 61.504 277.726 61.056 278.037 60.609 278.418 60.196 278.799 59.782 279.213 59.37 279.629 58.991 280.078 58.647 280.562 58.337 281.047 58.027 281.531 57.752 282.05 57.476 282.603 57.27 283.157 57.064 283.71 56.857 284.298 56.72 284.921 56.582 285.543 56.478 286.166 56.375 286.823 56.341 287.515 56.306 288.172 56.272 288.726 56.306 289.279 56.306 289.798 56.375 290.317 56.409 290.801 56.478 291.286 56.582 291.735 56.685 292.185 56.823 292.634 56.96 293.05 57.133 293.499 57.304 293.914 57.546 294.329 57.752 294.744 57.993 295.16 58.268 295.54 58.578 295.54 57.064 303.012 57.064 303.012 67.183 293.534 67.183 293.465 66.77 293.361 66.391 293.257 66.012 293.153 65.703 293.015 65.393 292.842 65.152 292.669 64.911 292.496 64.705 292.288 64.532 292.081 64.395 291.804 64.257 291.562 64.154 291.251 64.051 290.94 64.016 290.594 63.982 290.247 63.948 289.867 63.982 289.521 64.016 289.176 64.051 288.864 64.154 288.553 64.257 288.276 64.395 287.999 64.532 287.758 64.705 287.55 64.911 287.342 65.117 287.204 65.324 287.066 65.565 286.962 65.806 286.892 66.047 286.858 66.323 286.823 66.632 286.858 66.976 286.892 67.321 286.962 67.63 287.1 67.94 287.239 68.216 287.411 68.491 287.619 68.732 287.896 68.938 288.207 69.145 288.588 69.351 289.072 69.592 289.695 69.799 290.351 70.04 291.147 70.281 292.012 70.521 292.981 70.762 294.572 71.21 296.059 71.692 296.751 71.933 297.408 72.174 298.031 72.449 298.619 72.69 299.172 72.966 299.691 73.241 300.21 73.516 300.66 73.791 301.109 74.101 301.489 74.377 301.87 74.686 302.181 74.996 302.493 75.306 302.769 75.65 303.046 75.994 303.288 76.373 303.53 76.751 303.703 77.164 303.911 77.577 304.084 78.025 304.222 78.472 304.361 78.92 304.465 79.402 304.534 79.918 304.603 80.434 304.672 80.95 304.706 81.501 304.706 82.052 304.672 82.706 304.637 83.325 304.568 83.945 304.465 84.53 304.361 85.116 304.187 85.7 304.015 86.251 303.773 86.767 303.53 87.318 303.288 87.8 302.977 88.316 302.666 88.764 302.285 89.246 301.905 89.693 301.489 90.106 301.075 90.519 300.59 90.932 300.106 91.276 299.621 91.62 299.102 91.93 298.549 92.24 298.031 92.515 297.443 92.757 296.855 92.963 296.267 93.135 295.644 93.307 295.021 93.445 294.364 93.582 293.707 93.651 293.015 93.72 292.323 93.755 291.597 93.755 291.009 93.755 290.455 93.72 289.902 93.686 289.348 93.617 288.829 93.513 288.31 93.376 287.792 93.273 287.308 93.101 286.823 92.928 286.373 92.722 285.89 92.515 285.44 92.24 284.99 91.999 284.575 91.689 284.125 91.38 283.71 91.035 283.71 92.86 275.858 92.86 275.858 81.88 275.858 81.88" style="fill: #fff; fill-rule: evenodd;"/>
    <polygon points="344.248 79.849 344.007 80.641 343.764 81.432 343.487 82.19 343.176 82.947 342.865 83.635 342.484 84.358 342.138 85.012 341.723 85.666 341.308 86.285 340.858 86.905 340.374 87.49 339.89 88.041 339.337 88.557 338.817 89.074 338.229 89.59 337.641 90.037 337.018 90.485 336.396 90.898 335.739 91.276 335.082 91.655 334.39 91.965 333.698 92.275 332.972 92.55 332.246 92.791 331.519 92.997 330.758 93.204 329.963 93.342 329.167 93.479 328.371 93.582 327.542 93.651 326.677 93.686 325.847 93.72 324.808 93.686 323.805 93.617 322.837 93.513 321.903 93.376 320.97 93.169 320.07 92.928 319.171 92.653 318.305 92.344 317.475 91.999 316.645 91.586 315.849 91.139 315.055 90.657 314.328 90.14 313.601 89.59 312.875 88.97 312.183 88.316 311.526 87.628 310.903 86.94 310.35 86.217 309.797 85.46 309.312 84.702 308.862 83.911 308.448 83.119 308.101 82.293 307.756 81.432 307.479 80.572 307.237 79.677 307.064 78.782 306.891 77.853 306.787 76.924 306.718 75.96 306.718 74.996 306.718 74.032 306.787 73.069 306.891 72.139 307.064 71.21 307.237 70.315 307.479 69.454 307.756 68.594 308.067 67.768 308.413 66.942 308.828 66.15 309.278 65.359 309.762 64.601 310.315 63.844 310.903 63.087 311.526 62.364 312.183 61.676 312.841 61.022 313.498 60.437 314.189 59.886 314.916 59.37 315.642 58.853 316.369 58.44 317.165 58.027 317.96 57.649 318.756 57.339 319.552 57.064 320.382 56.823 321.246 56.616 322.076 56.478 322.94 56.375 323.805 56.306 324.705 56.272 325.396 56.306 326.123 56.341 326.814 56.409 327.472 56.547 328.13 56.685 328.787 56.857 329.444 57.064 330.066 57.304 330.654 57.58 331.277 57.855 331.831 58.199 332.419 58.578 332.972 58.991 333.491 59.404 334.01 59.886 334.528 60.368 334.528 57.201 342.623 57.201 342.623 70.315 332.972 70.315 332.695 69.799 332.384 69.351 332.073 68.904 331.726 68.525 331.347 68.147 330.966 67.803 330.551 67.493 330.136 67.217 329.686 66.942 329.201 66.736 328.752 66.563 328.233 66.426 327.714 66.288 327.195 66.219 326.607 66.15 326.055 66.15 325.604 66.15 325.155 66.185 324.739 66.219 324.325 66.288 323.909 66.391 323.494 66.494 323.079 66.632 322.699 66.77 322.318 66.942 321.972 67.148 321.592 67.355 321.246 67.596 320.9 67.837 320.589 68.112 320.243 68.387 319.931 68.698 319.654 69.007 319.378 69.351 319.101 69.696 318.859 70.04 318.652 70.418 318.444 70.762 318.271 71.176 318.098 71.554 317.96 71.933 317.821 72.345 317.718 72.759 317.648 73.206 317.579 73.619 317.511 74.067 317.475 74.514 317.475 74.996 317.475 75.444 317.511 75.926 317.545 76.373 317.614 76.786 317.718 77.233 317.821 77.646 317.926 78.059 318.063 78.472 318.236 78.851 318.409 79.23 318.617 79.608 318.825 79.952 319.066 80.297 319.308 80.641 319.586 80.985 319.897 81.295 320.174 81.605 320.485 81.88 320.831 82.155 321.142 82.396 321.488 82.603 321.834 82.809 322.215 83.016 322.56 83.188 322.94 83.325 323.321 83.463 323.736 83.567 324.117 83.67 324.532 83.739 324.947 83.773 325.396 83.807 325.847 83.807 326.365 83.807 326.919 83.739 327.437 83.67 327.957 83.567 328.441 83.394 328.925 83.222 329.375 83.016 329.824 82.775 330.239 82.499 330.654 82.224 331.035 81.88 331.381 81.536 331.726 81.157 332.038 80.744 332.315 80.297 332.556 79.849 344.248 79.849 344.248 79.849" style="fill: #fff; fill-rule: evenodd;"/>
    <polygon points="349.851 83.428 349.851 56.031 345.494 56.031 345.494 46.669 359.918 46.669 359.918 61.4 360.367 60.815 360.851 60.264 361.336 59.748 361.854 59.301 362.408 58.853 362.962 58.475 363.55 58.096 364.172 57.786 364.795 57.511 365.452 57.27 366.109 57.064 366.836 56.891 367.527 56.754 368.288 56.685 369.05 56.616 369.845 56.582 370.571 56.616 371.298 56.651 371.989 56.72 372.647 56.823 373.269 56.926 373.892 57.098 374.514 57.27 375.102 57.476 375.656 57.718 376.21 57.959 376.728 58.268 377.213 58.578 377.697 58.922 378.146 59.301 378.561 59.679 378.977 60.127 379.357 60.574 379.737 61.056 380.084 61.538 380.395 62.054 380.672 62.605 380.948 63.19 381.156 63.775 381.398 64.395 381.571 65.049 381.744 65.703 381.883 66.426 381.986 67.114 382.055 67.871 382.124 68.628 382.159 69.42 382.194 70.246 382.194 83.428 386.76 83.428 386.76 92.86 371.782 92.86 371.782 73.241 371.782 72.277 371.713 71.382 371.609 70.556 371.471 69.799 371.298 69.145 371.055 68.525 370.952 68.25 370.813 68.009 370.64 67.768 370.502 67.561 370.329 67.355 370.156 67.148 369.949 66.976 369.741 66.804 369.533 66.667 369.292 66.529 369.05 66.426 368.773 66.288 368.22 66.116 367.597 65.978 366.905 65.909 366.179 65.875 365.487 65.909 364.829 66.012 364.518 66.081 364.207 66.15 363.895 66.254 363.619 66.391 363.307 66.529 363.065 66.667 362.789 66.804 362.547 67.011 362.305 67.183 362.062 67.389 361.82 67.63 361.613 67.871 361.405 68.112 361.197 68.387 361.024 68.663 360.851 68.938 360.575 69.558 360.333 70.212 360.16 70.9 360.021 71.623 359.918 72.415 359.918 73.241 359.918 83.428 364.034 83.428 364.034 92.86 345.32 92.86 345.32 83.428 349.851 83.428 349.851 83.428" style="fill: #fff; fill-rule: evenodd;"/>
    <path d="m424.705,82.259l-.277.654-.346.654-.346.619-.346.62-.381.62-.38.551-.415.551-.416.551-.449.516-.484.516-.484.448-.483.482-.519.447-.554.413-.553.413-.589.378-.588.378-.588.344-.622.31-.623.275-.623.275-.622.241-.657.241-.657.206-.691.172-.658.138-.691.138-.727.103-.691.103-.726.034-.727.035-.761.034-1.038-.034-1.003-.069-.968-.103-.969-.138-.899-.206-.935-.207-.864-.275-.864-.31-.796-.344-.83-.413-.796-.447-.761-.482-.762-.516-.726-.585-.727-.619-.692-.654-.656-.688-.623-.689-.588-.723-.52-.757-.483-.757-.45-.791-.415-.792-.381-.826-.311-.86-.277-.86-.241-.895-.208-.895-.139-.929-.103-.929-.069-.964-.034-.964.034-.963.069-.964.103-.929.139-.93.208-.894.241-.895.277-.86.346-.861.346-.826.415-.826.45-.792.519-.757.519-.757.554-.688.623-.723.656-.654.692-.654.692-.585.76-.551.762-.551.796-.482.795-.447.865-.413.864-.378.899-.31.865-.309.934-.241.899-.172.934-.172.969-.103.934-.069.969-.035,1.211.035,1.211.103.588.103.588.069.554.138.588.103.553.138.588.172.554.172.554.206.554.207.518.241.554.241.519.275.519.275.519.309.483.31.484.31.484.344.449.344.45.344.449.378.416.378.415.414.38.413.415.448.347.447.38.448.346.481.347.482.38.551.347.585.31.585.311.619.277.585.241.654.242.62.173.654.174.654.172.654.139.688.103.688.069.723.069.723.035.723v1.652l-.035.241v.241l-.034.241v.275l-.035.241v.241l-.034.275-.035.275-.034.275-.034.275-.035.275-.034.275h-26.427l.173.585.242.551.276.516.311.482.381.482.415.413.449.413.484.378.554.344.554.275.588.275.588.206.657.138.622.103.692.069.691.035h.381l.38-.035.347-.034.38-.069.346-.069.346-.069.346-.103.311-.138.347-.104.311-.172.311-.138.311-.207.311-.206.311-.206.311-.241.311-.241h12.314Zm-25.597-10.842h15.946l-.208-.723-.242-.654-.312-.62-.312-.585-.38-.551-.415-.482-.484-.448-.484-.413-.518-.379-.588-.31-.588-.275-.623-.207-.692-.172-.691-.103-.727-.069-.761-.034-.691.034-.692.069-.657.103-.622.172-.623.241-.588.275-.554.31-.554.378-.483.413-.484.447-.415.482-.415.551-.346.585-.312.62-.242.654-.242.688h0Z" style="fill: #fff; fill-rule: evenodd;"/>
    <polygon points="428.647 81.88 438.299 81.88 438.333 82.362 438.402 82.775 438.506 83.188 438.644 83.567 438.783 83.911 438.991 84.22 439.198 84.53 439.44 84.771 439.717 85.012 440.028 85.219 440.34 85.39 440.685 85.528 441.1 85.632 441.515 85.735 441.966 85.769 442.415 85.769 442.865 85.769 443.279 85.735 443.694 85.666 444.041 85.563 444.387 85.46 444.698 85.322 444.974 85.15 445.252 84.978 445.459 84.771 445.666 84.53 445.84 84.255 445.977 83.979 446.081 83.67 446.151 83.36 446.185 83.016 446.22 82.637 446.185 82.362 446.116 82.121 446.047 81.845 445.908 81.605 445.735 81.364 445.528 81.157 445.286 80.916 445.009 80.71 444.698 80.503 444.317 80.331 443.936 80.124 443.487 79.952 443.037 79.781 442.518 79.608 441.966 79.47 441.412 79.333 440.928 79.195 440.513 79.092 440.097 78.989 439.717 78.886 439.371 78.817 439.025 78.713 438.714 78.644 438.437 78.541 437.226 78.162 436.085 77.75 435.531 77.543 435.013 77.302 434.528 77.061 434.044 76.82 433.595 76.545 433.144 76.27 432.729 75.994 432.349 75.719 431.969 75.409 431.623 75.099 431.277 74.789 430.966 74.445 430.688 74.101 430.412 73.757 430.17 73.378 429.928 73 429.721 72.621 429.513 72.208 429.34 71.795 429.167 71.382 429.028 70.934 428.925 70.487 428.821 70.005 428.717 69.523 428.682 69.042 428.613 68.56 428.579 68.043 428.579 67.493 428.613 66.873 428.647 66.288 428.717 65.703 428.786 65.117 428.925 64.567 429.063 64.016 429.236 63.466 429.444 62.949 429.651 62.468 429.928 61.986 430.204 61.504 430.481 61.056 430.827 60.609 431.173 60.196 431.588 59.782 432.003 59.37 432.419 58.991 432.868 58.647 433.352 58.337 433.837 58.027 434.32 57.752 434.84 57.476 435.393 57.27 435.946 57.064 436.5 56.857 437.088 56.72 437.711 56.582 438.333 56.478 438.956 56.375 439.613 56.341 440.27 56.306 440.962 56.272 441.515 56.306 442.069 56.306 442.588 56.375 443.106 56.409 443.591 56.478 444.075 56.582 444.524 56.685 444.974 56.823 445.424 56.96 445.84 57.133 446.289 57.304 446.704 57.546 447.119 57.752 447.534 57.993 447.949 58.268 448.33 58.578 448.33 57.064 455.801 57.064 455.801 67.183 446.323 67.183 446.254 66.77 446.151 66.391 446.047 66.012 445.943 65.703 445.805 65.393 445.632 65.152 445.459 64.911 445.286 64.705 445.078 64.532 444.871 64.395 444.594 64.257 444.317 64.154 444.041 64.051 443.729 64.016 443.384 63.982 443.003 63.948 442.657 63.982 442.311 64.016 441.966 64.051 441.654 64.154 441.343 64.257 441.066 64.395 440.789 64.532 440.547 64.705 440.34 64.911 440.132 65.117 439.993 65.324 439.855 65.565 439.751 65.806 439.682 66.047 439.613 66.323 439.613 66.632 439.647 66.976 439.682 67.321 439.751 67.63 439.889 67.94 440.028 68.216 440.201 68.491 440.409 68.732 440.685 68.938 440.962 69.145 441.378 69.351 441.861 69.592 442.449 69.799 443.141 70.04 443.936 70.281 444.802 70.521 445.77 70.762 447.361 71.21 448.848 71.692 449.54 71.933 450.197 72.174 450.82 72.449 451.408 72.69 451.962 72.966 452.48 73.241 453 73.516 453.449 73.791 453.864 74.101 454.279 74.377 454.659 74.686 454.971 74.996 455.282 75.306 455.558 75.65 455.836 75.994 456.078 76.373 456.286 76.751 456.493 77.164 456.7 77.577 456.874 78.025 457.012 78.472 457.15 78.92 457.254 79.402 457.323 79.918 457.392 80.434 457.462 80.95 457.462 81.501 457.496 82.052 457.462 82.706 457.427 83.325 457.357 83.945 457.254 84.53 457.115 85.116 456.977 85.7 456.805 86.251 456.562 86.767 456.32 87.318 456.078 87.8 455.766 88.316 455.421 88.764 455.075 89.246 454.694 89.693 454.279 90.106 453.83 90.519 453.38 90.932 452.895 91.276 452.412 91.62 451.892 91.93 451.339 92.24 450.785 92.515 450.232 92.757 449.644 92.963 449.056 93.135 448.433 93.307 447.81 93.445 447.153 93.582 446.497 93.651 445.805 93.72 445.113 93.755 444.387 93.755 443.799 93.755 443.245 93.72 442.691 93.686 442.138 93.617 441.619 93.513 441.1 93.376 440.581 93.273 440.097 93.101 439.613 92.928 439.163 92.722 438.68 92.515 438.229 92.24 437.78 91.999 437.364 91.689 436.915 91.38 436.5 91.035 436.5 92.86 428.647 92.86 428.647 81.88 428.647 81.88" style="fill: #fff; fill-rule: evenodd;"/>
    <path d="m594.991,99.778l-.068-1.343-.104-1.308-11.518-1.927-.173-1.067-.242-1.101-.241-1.067-.277-1.067-.311-1.033-.312-1.067-.346-1.033-.381-1.032,8.994-7.4-.554-1.204-.588-1.171-.623-1.17-.657-1.17-.691-1.136-.691-1.102-.726-1.102-.761-1.101-10.931,4.061-.727-.861-.727-.826-.761-.792-.762-.791-.795-.757-.796-.757-.83-.723-.865-.723,4.082-10.876-1.072-.757-1.142-.723-1.106-.688-1.142-.688-1.176-.654-1.177-.62-1.176-.586-1.211-.55-7.436,8.949-1.037-.379-1.038-.344-1.072-.31-1.038-.309-1.072-.275-1.072-.241-1.072-.207-1.106-.207-1.938-11.462-1.314-.103-1.349-.069-1.314-.069h-2.663l-1.314.069-1.35.069-1.314.103-1.937,11.462-1.071.207-1.107.207-1.072.241-1.072.275-1.038.309-1.071.31-1.038.344-1.038.379-7.437-8.949-1.211.55-1.176.586-1.176.62-1.176.654-1.143.688-1.106.688-1.106.723-1.107.757,4.082,10.876-.864.723-.831.723-.796.757-.795.757-.761.791-.762.792-.727.826-.691.861-10.965-4.061-.761,1.101-.726,1.102-.691,1.102-.692,1.136-.657,1.17-.623,1.17-.588,1.171-.553,1.204,8.993,7.4-.381,1.032-.346,1.033-.311,1.067-.311,1.033-.277,1.067-.242,1.067-.207,1.101-.208,1.067-11.519,1.927-.103,1.308-.069,1.343-.034,1.308-.035,1.343.035,1.308.034,1.308.069,1.342.103,1.308,11.519,1.928.208,1.102.207,1.066.242,1.066.277,1.067.311,1.067.311,1.033.346,1.031.381,1.033-8.993,7.4.553,1.205.588,1.17.623,1.17.657,1.17.692,1.137.691,1.102.726,1.135.761,1.066,10.965-4.061.691.861.727.824.762.793.761.791.795.758.796.758.831.723.864.723-4.082,10.875,1.107.758,1.106.723,1.106.689,1.143.687,1.176.654,1.176.619,1.176.586,1.211.551,7.437-8.949,1.038.379,1.038.344,1.071.344,1.038.275,1.072.275,1.072.24,1.107.242,1.071.172,1.937,11.461,1.314.103,1.35.068,1.314.07h2.663l1.314-.07,1.349-.068,1.314-.103,1.938-11.461,1.106-.172,1.072-.242,1.072-.24,1.072-.275,1.038-.275,1.072-.344,1.038-.344,1.037-.379,7.436,8.949,1.211-.551,1.176-.586,1.177-.619,1.176-.654,1.142-.687,1.106-.689,1.142-.723,1.072-.758-4.082-10.875.865-.723.83-.723.796-.758.795-.758.762-.791.761-.793.727-.824.727-.861,10.931,4.061.761-1.066.726-1.135.691-1.102.691-1.137.657-1.17.623-1.17.588-1.17.554-1.205-8.994-7.4.381-1.033.346-1.031.312-1.033.311-1.067.277-1.067.241-1.066.242-1.066.173-1.102,11.518-1.928.104-1.308.068-1.342.069-1.308v-2.65l-.069-1.308Zm-20.165,4.13l-.174,2.237-.311,2.272-.449,2.203-.588,2.203-.727,2.168-.865,2.135-1.037,2.064-1.142,1.996-1.314,1.963-1.452,1.857-1.592,1.789-1.729,1.687-1.902,1.584-2.006,1.514-2.18,1.377-6.434,10.67-3.977-6.574-.935.172-.968.172-.969.172-.969.103-.969.103-.969.068-.968.035h-1.972l-.969-.035-.969-.068-.969-.103-.969-.103-.968-.172-.969-.172-.934-.172-3.978,6.574-6.433-10.67-2.145-1.377-2.04-1.514-1.903-1.584-1.729-1.687-1.591-1.789-1.453-1.857-1.314-1.963-1.142-1.996-1.037-2.064-.864-2.135-.728-2.168-.588-2.203-.449-2.203-.31-2.272-.174-2.237v-2.272l.103-2.271.277-2.237.381-2.237.553-2.203.692-2.168.83-2.134.968-2.065,1.107-2.031,1.245-1.962,1.418-1.859,1.522-1.824,1.66-1.687,1.833-1.618,1.937-1.514,2.109-1.411,2.214-1.274v-7.882h33.518v7.882l2.248,1.274,2.076,1.411,1.936,1.514,1.834,1.618,1.66,1.687,1.521,1.824,1.419,1.859,1.244,1.962,1.107,2.031.969,2.065.83,2.134.691,2.168.554,2.203.381,2.237.276,2.237.139,2.271-.034,2.272Z" style="fill: #fff;"/>
    <polygon points="554.383 64.843 524.082 64.843 524.082 72.793 531.518 72.793 531.518 71.176 535.497 71.176 535.497 86.01 533.905 86.01 533.905 92.378 544.524 92.378 544.524 86.01 542.933 86.01 542.933 71.21 546.946 71.21 546.946 72.793 554.383 72.793 554.383 64.843 554.383 64.843" style="fill: #fff; fill-rule: evenodd;"/>
    <polygon points="522.732 77.027 522.732 83.394 524.358 83.394 524.358 108.796 522.732 108.762 522.732 115.129 533.387 115.129 533.387 108.762 531.796 108.762 531.796 102.428 546.669 102.428 546.669 108.762 545.078 108.762 545.078 115.129 555.697 115.129 555.697 108.762 554.105 108.762 554.105 83.36 555.697 83.394 555.697 77.027 545.078 77.027 545.078 83.394 546.669 83.394 546.669 96.061 531.796 96.061 531.796 83.394 533.387 83.394 533.387 77.027 522.732 77.027 522.732 77.027" style="fill: #fff; fill-rule: evenodd;"/>
    <polygon points="539.232 121.118 550.924 140.495 566.247 115.095 570.053 115.095 570.053 108.762 557.323 108.762 557.323 115.095 558.81 115.095 550.924 128.173 539.197 108.762 527.506 128.173 519.654 115.095 521.141 115.095 521.141 108.762 508.378 108.762 508.378 115.095 512.218 115.095 527.541 140.495 539.232 121.118 539.232 121.118" style="fill: #fff; fill-rule: evenodd;"/>
  </g>
  <g>
    <polygon points="73.973 36.989 73.973 9.833 69.476 9.833 69.476 .333 89.573 .333 89.573 9.833 85.387 9.833 85.387 18.198 99.05 18.198 99.05 9.833 94.761 9.833 94.761 .333 114.962 .333 114.962 9.833 110.396 9.833 110.396 36.989 114.962 36.989 114.962 46.524 94.761 46.524 94.761 36.989 99.05 36.989 99.05 27.696 85.387 27.696 85.387 36.989 89.642 36.989 89.642 46.524 69.476 46.524 69.476 36.989 73.973 36.989 73.973 36.989" style="fill: none; fill-rule: evenodd;"/>
    <polygon points="152.308 193.605 152.308 166.449 147.811 166.449 147.811 156.949 167.909 156.949 167.909 166.449 163.723 166.449 163.723 174.814 177.386 174.814 177.386 166.449 173.097 166.449 173.097 156.949 193.298 156.949 193.298 166.449 188.732 166.449 188.732 193.605 193.298 193.605 193.298 203.14 173.097 203.14 173.097 193.605 177.386 193.605 177.386 184.312 163.723 184.312 163.723 193.605 167.977 193.605 167.977 203.14 147.811 203.14 147.811 193.605 152.308 193.605 152.308 193.605" style="fill: none; fill-rule: evenodd;"/>
    <polygon points="36.908 88.79 9.752 88.79 9.752 93.287 .252 93.287 .252 73.19 9.752 73.19 9.752 77.376 18.117 77.376 18.117 63.712 9.752 63.712 9.752 68.002 .252 68.002 .252 47.801 9.752 47.801 9.752 52.367 36.908 52.367 36.908 47.801 46.443 47.801 46.443 68.002 36.908 68.002 36.908 63.712 27.615 63.712 27.615 77.376 36.908 77.376 36.908 73.121 46.443 73.121 46.443 93.287 36.908 93.287 36.908 88.79 36.908 88.79" style="fill: none; fill-rule: evenodd;"/>
    <polygon points="631.717 114.824 604.56 114.824 604.56 119.321 595.06 119.321 595.06 99.224 604.56 99.224 604.56 103.409 612.926 103.409 612.926 89.746 604.56 89.746 604.56 94.035 595.06 94.035 595.06 73.835 604.56 73.835 604.56 78.401 631.717 78.401 631.717 73.835 641.252 73.835 641.252 94.035 631.717 94.035 631.717 89.746 622.424 89.746 622.424 103.409 631.717 103.409 631.717 99.155 641.252 99.155 641.252 119.321 631.717 119.321 631.717 114.824 631.717 114.824" style="fill: none; fill-rule: evenodd;"/>
  </g>
</svg>