<?xml version="1.0" encoding="UTF-8"?>
<svg id="Ebene_1" data-name="Ebene 1" xmlns="http://www.w3.org/2000/svg" viewBox="0 0 641.061 260.357">
  <defs>
    <style>
      .cls-1 {
        fill: none;
      }

      .cls-1, .cls-2 {
        fill-rule: evenodd;
      }

      .cls-1, .cls-2, .cls-3 {
        stroke-width: 0px;
      }

      .cls-2, .cls-3 {
        fill: #fff;
      }
    </style>
  </defs>
  <g>
    <path class="cls-3" d="m47.982,198.337c1.75-1.725,3.949-2.6,6.473-2.6,2.399,0,4.599.9,6.324,2.625,1.799,1.774,2.749,4.049,2.749,6.473,0,2.549-.899,4.824-2.574,6.574-1.725,1.799-4.049,2.799-6.548,2.799-2.649,0-4.849-.95-6.599-2.825-1.674-1.799-2.524-3.974-2.524-6.598,0-2.475.95-4.724,2.7-6.448Zm6.423,11.447c2.549,0,4.649-2.049,4.649-4.949,0-2.599-2.075-4.674-4.574-4.674-2.649,0-4.724,2.075-4.724,4.674,0,2.799,2.199,4.949,4.649,4.949Z"/>
    <path class="cls-3" d="m66.807,203.736h-1.575v-3.599h5.249v2c.774-1.524,1.975-2.174,3.699-2.225v3.824c-2.549.125-3.524,1.225-3.524,3.724v2.774h1.575v3.624h-7.173v-3.624h1.75v-6.499Z"/>
    <path class="cls-3" d="m76.807,203.736h-1.725v-3.599h1.725v-4.049h3.949v4.049h1.725v3.599h-1.725v6.499h1.325v3.624h-5.273v-10.123Z"/>
    <path class="cls-3" d="m88.256,209.634c.05.975.575,1.5,1.575,1.5.95,0,1.45-.425,1.45-1.2,0-1.1-1.15-1.05-2.974-1.575-2.549-.725-3.774-2.05-3.774-4.249,0-2.574,1.875-4.324,4.749-4.324,1.1,0,1.975.25,2.824.875v-.575h2.85v3.899h-3.624c-.15-.9-.5-1.25-1.275-1.25-.825,0-1.3.475-1.3,1.024,0,1,.825,1.225,2.35,1.6,3.024.775,4.499,1.725,4.499,4.349,0,2.674-2.05,4.499-5.024,4.499-1.175,0-2.149-.325-3.024-1.05v.7h-2.999v-4.224h3.699Z"/>
    <path class="cls-3" d="m104.531,203.736v-3.599h6.273v3.599h-1.2l-3.849,10.123h-3.974l-3.799-10.123h-1.2v-3.599h6.348v3.599h-1.075l1.75,5.374,1.8-5.374h-1.075Z"/>
    <path class="cls-3" d="m119.105,214.183c-2.1,0-3.799-.649-5.224-2.074-1.4-1.375-2.1-3.125-2.1-5.124s.725-3.774,2.1-5.124,3.224-2.1,5.224-2.1c2.524,0,4.774,1.2,6.124,3.199.8,1.175,1.175,2.5,1.175,4.024,0,.5-.05,1.025-.125,1.55h-10.123c.325,1.2,1.475,2.024,2.949,2.024.775,0,1.425-.25,2.05-.775h4.724c-1.225,2.799-3.749,4.399-6.773,4.399Zm3.074-8.573c-.4-1.5-1.5-2.324-3.074-2.324-1.45,0-2.599.85-3.049,2.324h6.124Z"/>
    <path class="cls-3" d="m129.656,203.736h-1.575v-3.599h5.249v2c.775-1.524,1.974-2.174,3.699-2.225v3.824c-2.549.125-3.524,1.225-3.524,3.724v2.774h1.575v3.624h-7.173v-3.624h1.75v-6.499Z"/>
    <path class="cls-3" d="m139.956,199.687h-1.5v-3.599h5.249v5.749c.975-1.275,2.274-1.925,4.199-1.925,3.849,0,6.698,2.949,6.698,7.073s-2.849,7.073-6.698,7.073c-1.775,0-3.1-.55-4.024-1.724v1.524h-5.424v-3.624h1.5v-10.547Zm7.198,10.722c1.899,0,3.299-1.425,3.299-3.424s-1.4-3.424-3.299-3.424-3.299,1.424-3.299,3.424,1.4,3.424,3.299,3.424Z"/>
    <path class="cls-3" d="m162.855,214.058c-3.849,0-6.723-2.949-6.723-7.073s2.874-7.073,6.723-7.073c1.85,0,3.174.575,4.199,1.925v-1.7h5.249v3.599h-1.5v6.499h1.5v3.624h-5.449v-1.524c-.925,1.174-2.225,1.724-3.999,1.724Zm.725-3.649c1.9,0,3.299-1.425,3.299-3.424s-1.399-3.424-3.299-3.424-3.299,1.424-3.299,3.424,1.399,3.424,3.299,3.424Z"/>
    <path class="cls-3" d="m175.906,203.736h-1.674v-3.599h5.349v1.825c.875-1.325,2.125-2.05,3.949-2.05,3,0,4.749,1.825,4.749,5.249v5.074h1.75v3.624h-5.724v-7.548c0-1.924-.5-2.824-2.149-2.824-1.399,0-2.399,1.025-2.399,2.824v3.924h1.575v3.624h-7.173v-3.624h1.75v-6.499Z"/>
    <path class="cls-3" d="m198.004,214.058c-3.849,0-6.723-2.949-6.723-7.073s2.874-7.073,6.723-7.073c1.85,0,3.174.575,4.199,1.925v-2.274h-1.5v-3.474h5.249v14.146h1.5v3.624h-5.449v-1.524c-.925,1.174-2.225,1.724-3.999,1.724Zm.725-3.649c1.899,0,3.299-1.425,3.299-3.424s-1.399-3.424-3.299-3.424-3.299,1.424-3.299,3.424,1.399,3.424,3.299,3.424Z"/>
    <path class="cls-3" d="m218.581,199.737h-1.725v-3.649h7.698v3.649h-1.6v3.224h5.224v-3.224h-1.625v-3.649h7.723v3.649h-1.75v10.447h1.75v3.674h-7.723v-3.674h1.625v-3.574h-5.224v3.574h1.625v3.674h-7.723v-3.674h1.725v-10.447Z"/>
    <path class="cls-3" d="m242.679,214.058c-3.849,0-6.723-2.949-6.723-7.073s2.874-7.073,6.723-7.073c1.85,0,3.174.575,4.199,1.925v-1.7h5.249v3.599h-1.5v6.499h1.5v3.624h-5.449v-1.524c-.925,1.174-2.225,1.724-3.999,1.724Zm.725-3.649c1.899,0,3.299-1.425,3.299-3.424s-1.399-3.424-3.299-3.424-3.299,1.424-3.299,3.424,1.399,3.424,3.299,3.424Z"/>
    <path class="cls-3" d="m255.73,203.736h-1.674v-3.599h5.199v2.049c.975-1.549,2.274-2.324,3.999-2.324,1.674,0,2.924.875,3.624,2.549,1.1-1.7,2.349-2.5,4.049-2.5,2.75,0,4.349,1.825,4.349,5.249v5.074h1.75v3.624h-5.624v-7.548c0-1.899-.45-2.824-1.925-2.824-1.25,0-2.125,1.025-2.125,2.824v3.924h1.75v3.624h-5.499v-7.548c0-1.899-.475-2.824-1.949-2.824-1.25,0-2.1,1.025-2.1,2.824v3.924h1.575v3.624h-7.148v-3.624h1.75v-6.499Z"/>
    <path class="cls-3" d="m280.105,199.687h-1.5v-3.599h5.249v5.749c.975-1.275,2.274-1.925,4.199-1.925,3.849,0,6.698,2.949,6.698,7.073s-2.849,7.073-6.698,7.073c-1.775,0-3.099-.55-4.024-1.724v1.524h-5.424v-3.624h1.5v-10.547Zm7.198,10.722c1.899,0,3.299-1.425,3.299-3.424s-1.4-3.424-3.299-3.424-3.299,1.424-3.299,3.424,1.4,3.424,3.299,3.424Z"/>
    <path class="cls-3" d="m310.177,210.259h1.675v3.599h-5.349v-1.799c-.9,1.375-2.2,2.024-3.975,2.024-2.999,0-4.749-1.8-4.749-5.224v-5.099h-1.725v-3.624h5.699v7.548c0,1.924.524,2.824,2.174,2.824,1.4,0,2.375-1.025,2.375-2.824v-3.924h-1.574v-3.624h5.448v10.123Z"/>
    <path class="cls-3" d="m315.13,203.736h-1.575v-3.599h5.249v2c.774-1.524,1.975-2.174,3.699-2.225v3.824c-2.55.125-3.524,1.225-3.524,3.724v2.774h1.574v3.624h-7.173v-3.624h1.75v-6.499Z"/>
    <path class="cls-3" d="m330.354,214.058c-3.85,0-6.724-2.949-6.724-7.073s2.874-7.073,6.724-7.073c1.849,0,3.174.575,4.198,1.925v-1.7h5.249v3.599h-1.524v9.448c0,4.074-2.675,6.349-7.198,6.349-3.899,0-6.523-1.875-6.948-4.674h4.573c.3.8,1.1,1.2,2.425,1.2,2.124,0,3.225-1.025,3.225-3v-.725c-.925,1.174-2.225,1.724-3.999,1.724Zm.725-3.649c1.899,0,3.299-1.425,3.299-3.424s-1.399-3.424-3.299-3.424-3.3,1.424-3.3,3.424,1.4,3.424,3.3,3.424Z"/>
    <path class="cls-3" d="m341.68,208.785v-3.599h6.724v3.599h-6.724Z"/>
    <path class="cls-3" d="m356.028,210.184h1.5v3.674h-7.148v-3.674h1.725v-10.447h-1.725v-3.649h7.873l3.225,11.597,3.273-11.597h7.748v3.649h-1.725v10.447h1.725v3.674h-7.173v-3.674h1.5v-9.297l-3.999,12.972h-2.725l-4.074-13.147v9.473Z"/>
    <path class="cls-3" d="m376.079,203.736h-1.675v-3.599h5.549v10.098h1.725v3.624h-7.323v-3.624h1.725v-6.499Zm0-7.648h3.874v3.299h-3.874v-3.299Z"/>
    <path class="cls-3" d="m384.554,203.736h-1.725v-3.599h1.725v-4.049h3.949v4.049h1.725v3.599h-1.725v6.499h1.325v3.624h-5.274v-10.123Z"/>
    <path class="cls-3" d="m393.528,203.736h-1.725v-3.599h1.725v-4.049h3.949v4.049h1.725v3.599h-1.725v6.499h1.325v3.624h-5.274v-10.123Z"/>
    <path class="cls-3" d="m408.277,214.183c-2.1,0-3.8-.649-5.225-2.074-1.399-1.375-2.099-3.125-2.099-5.124s.725-3.774,2.099-5.124c1.375-1.35,3.225-2.1,5.225-2.1,2.524,0,4.773,1.2,6.123,3.199.8,1.175,1.175,2.5,1.175,4.024,0,.5-.05,1.025-.125,1.55h-10.122c.324,1.2,1.475,2.024,2.949,2.024.774,0,1.424-.25,2.049-.775h4.725c-1.226,2.799-3.75,4.399-6.773,4.399Zm3.074-8.573c-.4-1.5-1.5-2.324-3.074-2.324-1.45,0-2.6.85-3.05,2.324h6.124Z"/>
  </g>
  <rect class="cls-3" x="45.504" y="174.587" width="549.089" height="3.685"/>
  <g>
    <polygon class="cls-2" points="152.799 147.028 152.799 119.872 148.302 119.872 148.302 110.372 168.399 110.372 168.399 119.872 164.214 119.872 164.214 128.237 177.877 128.237 177.877 119.872 173.588 119.872 173.588 110.372 193.789 110.372 193.789 119.872 189.223 119.872 189.223 147.028 193.789 147.028 193.789 156.563 173.588 156.563 173.588 147.028 177.877 147.028 177.877 137.735 164.214 137.735 164.214 147.028 168.468 147.028 168.468 156.563 148.302 156.563 148.302 147.028 152.799 147.028 152.799 147.028"/>
    <path class="cls-2" d="m202.989,118.942v-8.57h10.1v8.57h-10.1Zm0,28.225v-16.9h-4.358v-9.328h14.458v26.228h4.532v9.396h-19.128v-9.396h4.497Z"/>
    <polygon class="cls-2" points="227.34 147.167 227.34 119.735 222.948 119.735 222.948 110.372 237.441 110.372 237.441 147.167 241.972 147.167 241.972 156.563 222.844 156.563 222.844 147.167 227.34 147.167 227.34 147.167"/>
    <polygon class="cls-2" points="250.239 130.266 245.673 130.266 245.673 120.938 250.239 120.938 250.239 120.147 250.274 119.425 250.343 118.702 250.447 118.048 250.551 117.393 250.689 116.774 250.827 116.155 251.035 115.604 251.243 115.053 251.484 114.571 251.727 114.09 252.003 113.608 252.314 113.195 252.661 112.816 253.006 112.438 253.387 112.093 253.802 111.784 254.251 111.473 254.736 111.198 255.255 110.958 255.808 110.717 256.396 110.51 257.019 110.303 257.676 110.132 258.368 109.96 259.094 109.821 259.855 109.718 260.65 109.649 261.481 109.546 262.346 109.512 263.245 109.477 264.179 109.477 266.358 109.477 266.358 117.669 266.358 117.669 266.323 117.669 266.323 117.669 266.289 117.669 266.254 117.669 266.22 117.669 266.22 117.669 266.185 117.669 265.805 117.635 265.459 117.6 265.182 117.565 264.905 117.565 264.628 117.532 264.421 117.532 264.248 117.532 264.076 117.532 263.591 117.532 263.107 117.565 262.691 117.635 262.311 117.704 261.965 117.807 261.654 117.911 261.412 118.083 261.17 118.255 260.962 118.426 260.824 118.667 260.65 118.909 260.547 119.218 260.443 119.563 260.409 119.907 260.374 120.286 260.34 120.733 260.34 120.938 265.39 120.938 265.39 130.266 260.34 130.266 260.34 147.167 265.321 147.167 265.321 156.563 245.673 156.563 245.673 147.167 250.239 147.167 250.239 130.266 250.239 130.266"/>
    <polygon class="cls-2" points="269.091 145.618 278.776 145.618 278.811 146.065 278.88 146.512 278.949 146.891 279.087 147.27 279.26 147.614 279.434 147.958 279.641 148.233 279.883 148.509 280.16 148.751 280.471 148.956 280.782 149.094 281.163 149.266 281.543 149.37 281.958 149.438 282.408 149.473 282.858 149.507 283.308 149.473 283.757 149.438 284.137 149.403 284.483 149.301 284.829 149.198 285.141 149.059 285.417 148.887 285.694 148.68 285.902 148.475 286.109 148.233 286.282 147.993 286.42 147.718 286.524 147.407 286.593 147.098 286.663 146.719 286.663 146.376 286.628 146.1 286.593 145.825 286.49 145.583 286.352 145.343 286.178 145.102 285.971 144.86 285.729 144.655 285.452 144.448 285.141 144.241 284.795 144.034 284.379 143.862 283.965 143.655 283.48 143.518 282.996 143.346 282.442 143.175 281.854 143.036 281.405 142.932 280.955 142.829 280.541 142.727 280.16 142.624 279.813 142.52 279.468 142.452 279.191 142.348 278.88 142.28 277.669 141.901 276.528 141.487 275.974 141.247 275.456 141.04 274.971 140.8 274.487 140.524 274.037 140.282 273.587 140.007 273.172 139.731 272.792 139.423 272.412 139.112 272.065 138.803 271.754 138.493 271.443 138.182 271.132 137.839 270.855 137.46 270.613 137.116 270.371 136.737 270.163 136.325 269.956 135.946 269.783 135.532 269.645 135.085 269.506 134.637 269.368 134.19 269.264 133.743 269.195 133.26 269.125 132.78 269.091 132.262 269.056 131.747 269.021 131.231 269.056 130.61 269.091 129.991 269.16 129.407 269.264 128.821 269.368 128.27 269.506 127.719 269.679 127.204 269.887 126.686 270.128 126.171 270.371 125.688 270.647 125.208 270.958 124.76 271.27 124.313 271.65 123.899 272.031 123.487 272.446 123.108 272.861 122.729 273.345 122.385 273.795 122.04 274.279 121.731 274.798 121.456 275.317 121.214 275.836 120.973 276.389 120.766 276.977 120.594 277.565 120.423 278.154 120.319 278.776 120.182 279.399 120.114 280.056 120.044 280.748 120.01 281.439 120.01 281.993 120.01 282.512 120.044 283.03 120.079 283.549 120.147 284.034 120.216 284.518 120.319 284.967 120.423 285.417 120.561 285.867 120.698 286.316 120.87 286.732 121.042 287.147 121.249 287.562 121.489 287.977 121.731 288.392 122.007 288.807 122.282 288.807 120.801 296.244 120.801 296.244 130.921 286.801 130.921 286.697 130.509 286.628 130.094 286.49 129.751 286.386 129.407 286.248 129.132 286.074 128.856 285.936 128.614 285.729 128.409 285.521 128.237 285.314 128.098 285.071 127.96 284.795 127.858 284.483 127.788 284.172 127.719 283.826 127.686 283.48 127.686 283.1 127.686 282.754 127.719 282.408 127.788 282.097 127.858 281.786 127.96 281.509 128.098 281.232 128.237 280.99 128.409 280.782 128.614 280.609 128.821 280.437 129.028 280.298 129.268 280.194 129.51 280.125 129.786 280.091 130.059 280.056 130.335 280.091 130.714 280.125 131.059 280.229 131.368 280.333 131.678 280.471 131.954 280.644 132.194 280.886 132.434 281.128 132.641 281.439 132.884 281.82 133.089 282.339 133.296 282.927 133.536 283.619 133.778 284.379 134.018 285.245 134.259 286.213 134.501 287.839 134.948 289.292 135.395 289.983 135.635 290.64 135.911 291.263 136.153 291.851 136.428 292.405 136.669 292.958 136.944 293.442 137.219 293.892 137.53 294.342 137.805 294.722 138.114 295.103 138.425 295.414 138.733 295.725 139.044 296.002 139.387 296.279 139.731 296.521 140.11 296.763 140.489 296.97 140.903 297.144 141.315 297.316 141.729 297.455 142.176 297.593 142.657 297.697 143.139 297.8 143.622 297.87 144.137 297.904 144.688 297.939 145.239 297.939 145.79 297.939 146.444 297.87 147.063 297.8 147.682 297.697 148.268 297.593 148.852 297.42 149.403 297.248 149.954 297.04 150.505 296.798 151.022 296.521 151.538 296.209 152.02 295.898 152.501 295.518 152.95 295.137 153.397 294.722 153.844 294.307 154.257 293.823 154.635 293.338 155.014 292.854 155.358 292.335 155.669 291.816 155.944 291.263 156.219 290.675 156.46 290.122 156.667 289.499 156.874 288.911 157.046 288.253 157.182 287.597 157.286 286.939 157.389 286.248 157.425 285.556 157.493 284.829 157.493 284.276 157.493 283.687 157.458 283.134 157.389 282.616 157.321 282.062 157.218 281.543 157.114 281.059 156.975 280.575 156.803 280.091 156.632 279.606 156.425 279.156 156.219 278.707 155.977 278.257 155.702 277.807 155.426 277.358 155.118 276.943 154.774 276.943 156.563 269.091 156.563 269.091 145.618 269.091 145.618"/>
    <polygon class="cls-2" points="321.772 156.563 311.706 156.563 303.3 130.266 300.187 130.266 300.187 120.938 316.167 120.938 316.167 130.266 313.296 130.266 317.136 144.241 323.363 120.938 332.079 120.938 338.305 144.241 342.179 130.266 339.308 130.266 339.308 120.938 355.254 120.938 355.254 130.266 352.141 130.266 343.736 156.563 333.67 156.563 327.721 136.05 321.772 156.563 321.772 156.563"/>
    <path class="cls-2" d="m392.992,145.962l-.311.689-.311.652-.346.621-.381.619-.381.584-.38.586-.415.551-.415.516-.449.517-.485.516-.483.482-.484.447-.52.447-.553.447-.554.379-.588.412-.588.346-.588.344-.623.308-.588.311-.657.275-.623.24-.657.207-.656.207-.692.172-.657.172-.691.139-.727.102-.692.07-.726.068-.727.035h-.761l-1.038-.035-1.003-.035-.969-.103-.934-.172-.935-.172-.899-.24-.899-.275-.829-.311-.831-.344-.83-.379-.796-.447-.761-.482-.761-.551-.727-.551-.726-.619-.691-.687-.657-.654-.623-.723-.588-.689-.519-.756-.484-.758-.449-.791-.415-.826-.381-.826-.311-.826-.276-.894-.242-.861-.208-.894-.138-.93-.104-.963-.068-.93-.035-.998.035-.965.068-.928.104-.965.138-.895.208-.895.242-.894.276-.897.346-.826.381-.859.381-.791.484-.793.483-.791.519-.723.553-.723.623-.689.657-.687.691-.619.692-.621.761-.551.761-.516.796-.482.83-.447.83-.412.865-.379.898-.344.899-.275.899-.242.934-.205.899-.139.969-.137.935-.035.969-.035,1.21.035,1.211.103.588.068.588.104.589.103.553.137.588.139.554.172.553.172.554.207.554.207.519.24.553.24.518.242.52.309.519.275.484.311.484.309.484.346.449.344.45.379.449.379.415.377.415.414.415.412.381.414.38.447.346.447.347.482.346.482.381.584.346.586.311.584.31.586.277.619.242.619.242.654.207.619.174.654.138.689.139.687.103.687.068.689.07.723.034.758v1.652l-.034.24v.482l-.035.24-.035.24v.275l-.034.242-.034.275-.034.275-.035.275-.034.275-.035.275h-26.427l.174.584.241.551.276.518.311.516.381.447.415.447.45.414.483.377.554.311.554.31.588.24.623.207.622.172.657.103.657.068h1.453l.381-.068.346-.035.346-.068.346-.103.346-.104.312-.104.346-.137.311-.139.312-.172.311-.172.31-.207.311-.205.312-.242.311-.275h12.348Zm-25.631-10.842h15.946l-.208-.687-.242-.689-.311-.619-.311-.586-.38-.516-.416-.516-.449-.447-.519-.414-.519-.344-.588-.31-.588-.275-.623-.205-.657-.174-.726-.137-.727-.068-.761-.035-.692.035-.692.068-.656.137-.623.174-.622.205-.588.275-.554.31-.519.379-.519.412-.484.482-.415.482-.381.516-.346.586-.311.619-.277.654-.242.687h0Z"/>
    <polygon class="cls-2" points="400.221 147.167 400.221 130.266 396.14 130.266 396.14 120.938 409.837 120.938 409.837 126.102 410.218 125.38 410.633 124.76 411.048 124.139 411.498 123.589 412.017 123.108 412.501 122.626 413.054 122.214 413.642 121.835 414.23 121.524 414.853 121.214 415.545 120.973 416.237 120.766 416.998 120.594 417.793 120.491 418.624 120.387 419.489 120.354 419.489 130.233 418.9 130.266 418.312 130.335 417.758 130.405 417.205 130.509 416.686 130.61 416.203 130.714 415.717 130.852 415.268 130.989 414.853 131.161 414.438 131.333 414.058 131.54 413.677 131.747 413.331 131.987 413.02 132.229 412.708 132.469 412.431 132.745 412.155 133.055 411.913 133.364 411.706 133.675 411.498 134.053 411.291 134.432 411.118 134.809 410.944 135.223 410.806 135.671 410.703 136.153 410.564 136.634 410.495 137.116 410.425 137.632 410.356 138.182 410.322 138.768 410.288 139.354 410.288 139.938 410.288 147.167 414.404 147.167 414.404 156.563 395.69 156.563 395.69 147.167 400.221 147.167 400.221 147.167"/>
    <polygon class="cls-2" points="426.467 147.167 426.467 119.735 422.11 119.735 422.11 110.372 436.498 110.372 436.498 137.288 443.901 129.682 439.854 129.682 439.854 120.938 458.118 120.938 458.118 130.266 454.244 130.266 446.945 137.907 454.139 147.167 459.224 147.167 459.224 156.563 449.123 156.563 436.498 140.593 436.498 156.563 421.902 156.563 421.902 147.167 426.467 147.167 426.467 147.167"/>
    <polygon class="cls-2" points="70.339 82.906 74.663 82.906 74.663 92.474 54.601 92.474 54.601 82.906 58.924 82.906 58.924 55.783 54.601 55.783 54.601 62.082 46.265 62.082 46.265 46.283 83.034 46.283 83.034 62.082 74.663 62.082 74.663 55.783 70.339 55.783 70.339 82.906 70.339 82.906"/>
    <path class="cls-2" d="m119.323,81.873l-.311.654-.312.654-.346.619-.346.62-.38.62-.38.551-.415.551-.45.551-.45.516-.45.516-.484.448-.519.482-.519.447-.519.413-.554.413-.588.378-.588.378-.588.344-.622.31-.623.275-.623.275-.657.241-.622.241-.692.206-.657.172-.692.138-.692.138-.692.103-.726.103-.727.034-.726.035-.726.034-1.038-.034-1.003-.069-.968-.103-.969-.138-.934-.206-.899-.207-.865-.275-.865-.31-.83-.344-.796-.413-.795-.447-.761-.482-.761-.516-.761-.585-.692-.619-.726-.654-.657-.688-.588-.689-.588-.723-.519-.757-.519-.757-.45-.791-.415-.792-.346-.826-.346-.86-.277-.86-.242-.895-.173-.895-.173-.929-.104-.929-.069-.964v-1.927l.069-.964.138-.929.139-.93.207-.894.242-.895.276-.86.312-.861.38-.826.415-.826.45-.792.484-.757.553-.757.554-.688.623-.723.623-.654.692-.654.727-.585.726-.551.795-.551.761-.482.83-.447.83-.413.899-.378.865-.31.899-.309.899-.241.934-.172.934-.172.934-.103.968-.069.969-.035,1.21.035,1.211.103.588.103.554.069.588.138.588.103.553.138.554.172.588.172.519.206.553.207.554.241.519.241.554.275.519.275.484.309.519.31.484.31.484.344.45.344.45.344.415.378.45.378.415.414.381.413.38.448.38.447.38.448.346.481.311.482.38.551.346.585.346.585.312.619.242.585.277.654.207.62.207.654.173.654.173.654.103.688.104.688.104.723.034.723.035.723.035.757v.448l-.035.241v.688l-.035.241v.275l-.034.241-.035.241-.035.275v.275l-.035.275-.035.275-.034.275-.035.275h-26.427l.173.585.242.551.243.516.346.482.346.482.415.413.45.413.519.378.553.344.554.275.588.275.588.206.623.138.658.103.691.069.692.035h.38l.381-.035.346-.034.346-.069.38-.069.346-.069.312-.103.346-.138.312-.104.346-.172.311-.138.312-.207.311-.206.311-.206.311-.241.311-.241h12.313Zm-25.631-10.842h15.981l-.207-.723-.277-.654-.276-.62-.346-.585-.38-.551-.415-.482-.45-.448-.484-.413-.553-.379-.554-.31-.588-.275-.657-.207-.657-.172-.692-.103-.726-.069-.761-.034-.727.034-.657.069-.658.103-.657.172-.588.241-.588.275-.554.31-.553.378-.519.413-.45.447-.449.482-.381.551-.346.585-.312.62-.277.654-.242.688h0Z"/>
    <polygon class="cls-2" points="161.254 79.464 161.012 80.256 160.77 81.047 160.493 81.804 160.182 82.562 159.87 83.25 159.525 83.973 159.144 84.627 158.729 85.281 158.314 85.9 157.865 86.52 157.38 87.105 156.896 87.656 156.343 88.172 155.824 88.688 155.236 89.204 154.647 89.652 154.025 90.099 153.402 90.512 152.745 90.891 152.088 91.27 151.396 91.579 150.704 91.889 149.978 92.165 149.251 92.406 148.525 92.612 147.764 92.819 146.969 92.956 146.173 93.094 145.377 93.197 144.547 93.266 143.682 93.301 142.852 93.335 141.815 93.301 140.812 93.232 139.843 93.128 138.909 92.99 137.975 92.784 137.076 92.543 136.177 92.268 135.312 91.958 134.481 91.614 133.652 91.201 132.856 90.754 132.095 90.272 131.334 89.755 130.607 89.204 129.881 88.585 129.189 87.931 128.532 87.243 127.91 86.554 127.356 85.831 126.803 85.074 126.318 84.317 125.869 83.526 125.454 82.734 125.108 81.907 124.762 81.047 124.485 80.187 124.243 79.292 124.07 78.397 123.897 77.468 123.793 76.538 123.724 75.574 123.724 74.611 123.724 73.647 123.793 72.683 123.897 71.754 124.07 70.824 124.243 69.93 124.485 69.069 124.762 68.209 125.073 67.383 125.419 66.557 125.834 65.765 126.284 64.973 126.768 64.216 127.321 63.459 127.91 62.702 128.532 61.979 129.189 61.29 129.847 60.636 130.504 60.051 131.196 59.501 131.922 58.985 132.648 58.468 133.409 58.055 134.17 57.642 134.966 57.263 135.762 56.954 136.557 56.678 137.387 56.437 138.252 56.231 139.082 56.093 139.947 55.99 140.812 55.921 141.711 55.886 142.403 55.921 143.129 55.955 143.821 56.024 144.478 56.162 145.136 56.3 145.792 56.472 146.45 56.678 147.073 56.919 147.66 57.195 148.283 57.47 148.836 57.814 149.425 58.193 149.978 58.606 150.497 59.019 151.05 59.501 151.535 59.983 151.535 56.816 159.629 56.816 159.629 69.93 149.978 69.93 149.701 69.413 149.39 68.966 149.078 68.519 148.733 68.14 148.352 67.761 147.972 67.417 147.556 67.108 147.141 66.832 146.692 66.557 146.242 66.35 145.758 66.178 145.239 66.04 144.72 65.903 144.202 65.834 143.648 65.765 143.06 65.765 142.61 65.765 142.16 65.8 141.745 65.834 141.33 65.903 140.915 66.006 140.5 66.109 140.085 66.247 139.704 66.385 139.324 66.557 138.978 66.763 138.598 66.969 138.252 67.211 137.906 67.451 137.595 67.727 137.283 68.002 136.937 68.312 136.661 68.622 136.384 68.966 136.107 69.31 135.865 69.655 135.658 70.033 135.45 70.377 135.277 70.79 135.104 71.169 134.966 71.548 134.827 71.96 134.723 72.374 134.655 72.821 134.585 73.234 134.516 73.681 134.481 74.129 134.481 74.611 134.481 75.058 134.516 75.54 134.585 75.988 134.62 76.401 134.723 76.848 134.827 77.261 134.931 77.674 135.104 78.087 135.243 78.466 135.415 78.844 135.623 79.223 135.83 79.567 136.073 79.911 136.315 80.256 136.592 80.6 136.903 80.909 137.18 81.219 137.526 81.494 137.837 81.77 138.182 82.011 138.494 82.218 138.84 82.424 139.221 82.631 139.566 82.802 139.947 82.94 140.327 83.078 140.742 83.181 141.123 83.284 141.538 83.353 141.988 83.388 142.403 83.422 142.852 83.422 143.371 83.422 143.925 83.353 144.443 83.284 144.962 83.181 145.447 83.009 145.931 82.837 146.381 82.631 146.83 82.389 147.28 82.114 147.66 81.839 148.041 81.494 148.387 81.151 148.733 80.772 149.044 80.359 149.321 79.911 149.563 79.464 161.254 79.464 161.254 79.464"/>
    <polygon class="cls-2" points="166.933 83.043 166.933 55.646 162.575 55.646 162.575 46.283 176.999 46.283 176.999 61.015 177.449 60.43 177.933 59.879 178.417 59.363 178.936 58.916 179.489 58.468 180.042 58.09 180.631 57.711 181.253 57.401 181.876 57.126 182.533 56.885 183.19 56.678 183.882 56.506 184.609 56.368 185.37 56.3 186.13 56.231 186.926 56.197 187.652 56.231 188.379 56.265 189.036 56.334 189.728 56.437 190.351 56.541 190.973 56.713 191.596 56.885 192.184 57.091 192.737 57.332 193.256 57.573 193.775 57.883 194.294 58.193 194.778 58.537 195.228 58.916 195.643 59.294 196.058 59.741 196.438 60.189 196.819 60.671 197.165 61.153 197.476 61.669 197.753 62.22 198.03 62.805 198.237 63.39 198.479 64.01 198.652 64.663 198.825 65.318 198.963 66.04 199.067 66.729 199.136 67.486 199.206 68.243 199.24 69.035 199.275 69.861 199.275 83.043 203.806 83.043 203.806 92.474 188.863 92.474 188.863 72.855 188.863 71.892 188.794 70.997 188.69 70.171 188.552 69.413 188.379 68.76 188.137 68.14 188.033 67.864 187.895 67.624 187.722 67.383 187.583 67.176 187.411 66.969 187.237 66.763 187.03 66.591 186.823 66.419 186.615 66.281 186.373 66.144 186.13 66.04 185.854 65.903 185.3 65.731 184.678 65.593 183.986 65.524 183.26 65.489 182.568 65.524 181.911 65.627 181.565 65.696 181.288 65.765 180.977 65.868 180.666 66.006 180.389 66.144 180.112 66.281 179.87 66.419 179.628 66.625 179.351 66.798 179.144 67.004 178.901 67.245 178.694 67.486 178.486 67.727 178.279 68.002 178.105 68.278 177.933 68.553 177.656 69.173 177.414 69.826 177.207 70.515 177.103 71.238 176.999 72.03 176.999 72.855 176.999 83.043 181.081 83.043 181.081 92.474 162.367 92.474 162.367 83.043 166.933 83.043 166.933 83.043"/>
    <polygon class="cls-2" points="212.453 83.043 212.453 66.178 208.061 66.178 208.061 56.816 222.035 56.816 222.035 61.531 222.485 60.878 222.969 60.292 223.488 59.707 224.006 59.191 224.56 58.709 225.148 58.261 225.736 57.883 226.359 57.539 227.016 57.229 227.708 56.954 228.4 56.713 229.126 56.541 229.887 56.403 230.683 56.3 231.513 56.231 232.343 56.197 233.103 56.231 233.795 56.265 234.487 56.334 235.18 56.437 235.802 56.541 236.459 56.713 237.047 56.885 237.635 57.091 238.188 57.332 238.742 57.608 239.261 57.883 239.745 58.193 240.229 58.537 240.679 58.916 241.129 59.329 241.543 59.741 241.924 60.189 242.305 60.671 242.616 61.187 242.962 61.703 243.238 62.254 243.516 62.84 243.723 63.425 243.965 64.044 244.138 64.698 244.311 65.352 244.449 66.04 244.553 66.763 244.657 67.486 244.691 68.243 244.761 69.035 244.761 69.861 244.761 83.043 249.327 83.043 249.327 92.474 234.383 92.474 234.383 72.855 234.349 71.892 234.28 70.997 234.176 70.171 234.038 69.413 233.865 68.76 233.623 68.14 233.519 67.864 233.381 67.624 233.242 67.383 233.069 67.176 232.896 66.969 232.724 66.763 232.516 66.591 232.308 66.419 232.101 66.281 231.858 66.144 231.616 66.04 231.34 65.903 230.787 65.731 230.164 65.593 229.472 65.524 228.746 65.489 228.054 65.524 227.396 65.627 227.085 65.696 226.773 65.765 226.463 65.868 226.186 66.006 225.909 66.144 225.633 66.281 225.355 66.419 225.114 66.625 224.872 66.798 224.629 67.004 224.387 67.245 224.18 67.486 223.972 67.727 223.799 68.002 223.592 68.278 223.453 68.553 223.142 69.173 222.899 69.826 222.727 70.515 222.589 71.238 222.519 72.03 222.485 72.855 222.485 83.043 226.601 83.043 226.601 92.474 207.888 92.474 207.888 83.043 212.453 83.043 212.453 83.043"/>
    <path class="cls-2" d="m257.42,54.854v-8.571h10.101v8.571h-10.101Zm0,28.189v-16.865h-4.358v-9.362h14.458v26.227h4.531v9.431h-19.128v-9.431h4.496Z"/>
    <polygon class="cls-2" points="275.684 81.494 285.335 81.494 285.404 81.976 285.438 82.389 285.542 82.802 285.681 83.181 285.819 83.526 286.027 83.835 286.234 84.145 286.476 84.386 286.753 84.627 287.064 84.833 287.375 85.005 287.756 85.143 288.136 85.246 288.552 85.349 289.001 85.384 289.451 85.384 289.901 85.384 290.316 85.349 290.73 85.281 291.077 85.177 291.422 85.074 291.734 84.937 292.011 84.764 292.288 84.593 292.495 84.386 292.703 84.145 292.875 83.869 293.014 83.594 293.117 83.284 293.187 82.975 293.221 82.631 293.256 82.252 293.221 81.976 293.187 81.736 293.083 81.46 292.945 81.219 292.771 80.978 292.564 80.772 292.322 80.531 292.045 80.324 291.734 80.118 291.353 79.946 290.973 79.739 290.558 79.567 290.073 79.395 289.555 79.223 289.036 79.085 288.448 78.947 287.964 78.81 287.548 78.707 287.134 78.603 286.753 78.5 286.407 78.431 286.061 78.328 285.749 78.259 285.473 78.156 284.262 77.777 283.121 77.364 282.567 77.158 282.049 76.917 281.564 76.676 281.08 76.435 280.63 76.159 280.181 75.885 279.766 75.609 279.385 75.334 279.005 75.024 278.659 74.714 278.313 74.404 278.001 74.06 277.725 73.716 277.448 73.372 277.206 72.993 276.964 72.614 276.756 72.236 276.549 71.823 276.376 71.41 276.203 70.997 276.064 70.549 275.961 70.102 275.857 69.62 275.788 69.138 275.719 68.656 275.65 68.175 275.615 67.658 275.615 67.108 275.65 66.488 275.684 65.903 275.753 65.318 275.822 64.732 275.961 64.182 276.1 63.631 276.272 63.08 276.48 62.564 276.687 62.082 276.964 61.6 277.241 61.118 277.552 60.671 277.863 60.223 278.244 59.81 278.624 59.397 279.039 58.985 279.455 58.606 279.904 58.261 280.388 57.952 280.873 57.642 281.357 57.367 281.875 57.091 282.429 56.885 282.982 56.678 283.536 56.472 284.124 56.334 284.747 56.197 285.369 56.093 285.992 55.99 286.649 55.955 287.341 55.921 287.998 55.886 288.552 55.921 289.105 55.921 289.624 55.99 290.143 56.024 290.627 56.093 291.111 56.197 291.561 56.3 292.011 56.437 292.46 56.575 292.875 56.747 293.325 56.919 293.74 57.16 294.155 57.367 294.57 57.608 294.985 57.883 295.366 58.193 295.366 56.678 302.837 56.678 302.837 66.798 293.359 66.798 293.291 66.385 293.187 66.006 293.083 65.627 292.979 65.318 292.841 65.008 292.667 64.767 292.495 64.526 292.322 64.32 292.114 64.147 291.907 64.01 291.63 63.872 291.388 63.769 291.077 63.665 290.766 63.631 290.42 63.596 290.073 63.562 289.693 63.596 289.347 63.631 289.001 63.665 288.69 63.769 288.379 63.872 288.102 64.01 287.825 64.147 287.583 64.32 287.375 64.526 287.168 64.732 287.03 64.939 286.892 65.18 286.788 65.421 286.718 65.662 286.684 65.937 286.649 66.247 286.684 66.591 286.718 66.935 286.788 67.245 286.926 67.555 287.064 67.83 287.237 68.106 287.445 68.346 287.722 68.553 288.033 68.76 288.414 68.966 288.897 69.207 289.52 69.413 290.177 69.655 290.973 69.895 291.838 70.136 292.807 70.377 294.397 70.824 295.885 71.306 296.577 71.548 297.233 71.788 297.856 72.064 298.444 72.304 298.998 72.58 299.517 72.855 300.036 73.131 300.485 73.406 300.935 73.716 301.315 73.991 301.696 74.301 302.007 74.611 302.318 74.921 302.595 75.265 302.872 75.609 303.114 75.988 303.356 76.366 303.529 76.779 303.737 77.192 303.91 77.64 304.048 78.087 304.187 78.534 304.291 79.016 304.359 79.532 304.429 80.049 304.498 80.565 304.532 81.116 304.532 81.667 304.498 82.321 304.463 82.94 304.394 83.56 304.291 84.145 304.187 84.73 304.013 85.315 303.841 85.866 303.599 86.382 303.356 86.933 303.114 87.415 302.803 87.931 302.492 88.379 302.111 88.861 301.73 89.308 301.315 89.721 300.9 90.134 300.416 90.547 299.932 90.891 299.447 91.235 298.928 91.545 298.375 91.855 297.856 92.13 297.269 92.371 296.681 92.577 296.093 92.75 295.47 92.922 294.847 93.06 294.19 93.197 293.533 93.266 292.841 93.335 292.149 93.369 291.422 93.369 290.834 93.369 290.281 93.335 289.728 93.301 289.174 93.232 288.655 93.128 288.136 92.99 287.618 92.887 287.134 92.716 286.649 92.543 286.199 92.337 285.715 92.13 285.266 91.855 284.816 91.614 284.401 91.304 283.951 90.994 283.536 90.65 283.536 92.474 275.684 92.474 275.684 81.494 275.684 81.494"/>
    <polygon class="cls-2" points="344.074 79.464 343.832 80.256 343.59 81.047 343.313 81.804 343.001 82.562 342.691 83.25 342.31 83.973 341.964 84.627 341.549 85.281 341.134 85.9 340.684 86.52 340.2 87.105 339.716 87.656 339.163 88.172 338.643 88.688 338.055 89.204 337.467 89.652 336.844 90.099 336.222 90.512 335.565 90.891 334.908 91.27 334.216 91.579 333.524 91.889 332.798 92.165 332.072 92.406 331.345 92.612 330.583 92.819 329.789 92.956 328.993 93.094 328.197 93.197 327.368 93.266 326.502 93.301 325.672 93.335 324.634 93.301 323.631 93.232 322.663 93.128 321.729 92.99 320.795 92.784 319.896 92.543 318.997 92.268 318.131 91.958 317.301 91.614 316.471 91.201 315.675 90.754 314.88 90.272 314.154 89.755 313.427 89.204 312.701 88.585 312.009 87.931 311.352 87.243 310.729 86.554 310.176 85.831 309.622 85.074 309.138 84.317 308.688 83.526 308.273 82.734 307.927 81.907 307.581 81.047 307.305 80.187 307.063 79.292 306.89 78.397 306.717 77.468 306.613 76.538 306.544 75.574 306.544 74.611 306.544 73.647 306.613 72.683 306.717 71.754 306.89 70.824 307.063 69.93 307.305 69.069 307.581 68.209 307.893 67.383 308.239 66.557 308.654 65.765 309.104 64.973 309.587 64.216 310.141 63.459 310.729 62.702 311.352 61.979 312.009 61.29 312.666 60.636 313.324 60.051 314.015 59.501 314.742 58.985 315.468 58.468 316.195 58.055 316.991 57.642 317.786 57.263 318.581 56.954 319.377 56.678 320.207 56.437 321.072 56.231 321.902 56.093 322.766 55.99 323.631 55.921 324.531 55.886 325.222 55.921 325.949 55.955 326.64 56.024 327.298 56.162 327.956 56.3 328.613 56.472 329.27 56.678 329.892 56.919 330.48 57.195 331.103 57.47 331.657 57.814 332.245 58.193 332.798 58.606 333.317 59.019 333.835 59.501 334.354 59.983 334.354 56.816 342.449 56.816 342.449 69.93 332.798 69.93 332.521 69.413 332.209 68.966 331.899 68.519 331.552 68.14 331.172 67.761 330.791 67.417 330.376 67.108 329.961 66.832 329.512 66.557 329.027 66.35 328.578 66.178 328.059 66.04 327.539 65.903 327.021 65.834 326.433 65.765 325.88 65.765 325.43 65.765 324.981 65.8 324.565 65.834 324.151 65.903 323.735 66.006 323.32 66.109 322.905 66.247 322.525 66.385 322.144 66.557 321.798 66.763 321.417 66.969 321.072 67.211 320.726 67.451 320.414 67.727 320.069 68.002 319.757 68.312 319.48 68.622 319.204 68.966 318.927 69.31 318.685 69.655 318.478 70.033 318.27 70.377 318.097 70.79 317.924 71.169 317.786 71.548 317.647 71.96 317.543 72.374 317.474 72.821 317.405 73.234 317.336 73.681 317.301 74.129 317.301 74.611 317.301 75.058 317.336 75.54 317.371 75.988 317.44 76.401 317.543 76.848 317.647 77.261 317.751 77.674 317.889 78.087 318.062 78.466 318.235 78.844 318.443 79.223 318.651 79.567 318.892 79.911 319.134 80.256 319.412 80.6 319.723 80.909 319.999 81.219 320.311 81.494 320.657 81.77 320.968 82.011 321.314 82.218 321.66 82.424 322.04 82.631 322.386 82.802 322.766 82.94 323.147 83.078 323.562 83.181 323.943 83.284 324.358 83.353 324.773 83.388 325.222 83.422 325.672 83.422 326.191 83.422 326.745 83.353 327.263 83.284 327.783 83.181 328.267 83.009 328.75 82.837 329.201 82.631 329.65 82.389 330.065 82.114 330.48 81.839 330.861 81.494 331.206 81.151 331.552 80.772 331.864 80.359 332.141 79.911 332.382 79.464 344.074 79.464 344.074 79.464"/>
    <polygon class="cls-2" points="349.677 83.043 349.677 55.646 345.32 55.646 345.32 46.283 359.744 46.283 359.744 61.015 360.193 60.43 360.677 59.879 361.162 59.363 361.68 58.916 362.234 58.468 362.788 58.09 363.375 57.711 363.997 57.401 364.621 57.126 365.278 56.885 365.935 56.678 366.662 56.506 367.353 56.368 368.114 56.3 368.875 56.231 369.67 56.197 370.397 56.231 371.123 56.265 371.815 56.334 372.473 56.437 373.095 56.541 373.718 56.713 374.34 56.885 374.928 57.091 375.482 57.332 376.036 57.573 376.554 57.883 377.039 58.193 377.523 58.537 377.972 58.916 378.387 59.294 378.803 59.741 379.183 60.189 379.563 60.671 379.91 61.153 380.221 61.669 380.497 62.22 380.774 62.805 380.982 63.39 381.224 64.01 381.397 64.663 381.57 65.318 381.708 66.04 381.812 66.729 381.881 67.486 381.95 68.243 381.985 69.035 382.02 69.861 382.02 83.043 386.585 83.043 386.585 92.474 371.608 92.474 371.608 72.855 371.608 71.892 371.539 70.997 371.435 70.171 371.296 69.413 371.123 68.76 370.881 68.14 370.778 67.864 370.639 67.624 370.466 67.383 370.328 67.176 370.155 66.969 369.982 66.763 369.775 66.591 369.567 66.419 369.359 66.281 369.118 66.144 368.875 66.04 368.599 65.903 368.045 65.731 367.422 65.593 366.731 65.524 366.004 65.489 365.313 65.524 364.655 65.627 364.344 65.696 364.033 65.765 363.721 65.868 363.445 66.006 363.133 66.144 362.891 66.281 362.615 66.419 362.372 66.625 362.13 66.798 361.888 67.004 361.646 67.245 361.439 67.486 361.231 67.727 361.023 68.002 360.85 68.278 360.677 68.553 360.401 69.173 360.159 69.826 359.986 70.515 359.847 71.238 359.744 72.03 359.744 72.855 359.744 83.043 363.86 83.043 363.86 92.474 345.146 92.474 345.146 83.043 349.677 83.043 349.677 83.043"/>
    <path class="cls-2" d="m424.531,81.873l-.277.654-.346.654-.346.619-.346.62-.381.62-.38.551-.415.551-.416.551-.449.516-.484.516-.484.448-.483.482-.519.447-.554.413-.553.413-.589.378-.588.378-.588.344-.622.31-.623.275-.623.275-.622.241-.657.241-.657.206-.691.172-.658.138-.691.138-.727.103-.691.103-.726.034-.727.035-.761.034-1.038-.034-1.003-.069-.968-.103-.969-.138-.899-.206-.935-.207-.864-.275-.864-.31-.796-.344-.83-.413-.796-.447-.761-.482-.762-.516-.726-.585-.727-.619-.692-.654-.656-.688-.623-.689-.588-.723-.52-.757-.483-.757-.45-.791-.415-.792-.381-.826-.311-.86-.277-.86-.241-.895-.208-.895-.139-.929-.103-.929-.069-.964-.034-.964.034-.963.069-.964.103-.929.139-.93.208-.894.241-.895.277-.86.346-.861.346-.826.415-.826.45-.792.519-.757.519-.757.554-.688.623-.723.656-.654.692-.654.692-.585.76-.551.762-.551.796-.482.795-.447.865-.413.864-.378.899-.31.865-.309.934-.241.899-.172.934-.172.969-.103.934-.069.969-.035,1.211.035,1.211.103.588.103.588.069.554.138.588.103.553.138.588.172.554.172.554.206.554.207.518.241.554.241.519.275.519.275.519.309.483.31.484.31.484.344.449.344.45.344.449.378.416.378.415.414.38.413.415.448.347.447.38.448.346.481.347.482.38.551.347.585.31.585.311.619.277.585.241.654.242.62.173.654.174.654.172.654.139.688.103.688.069.723.069.723.035.723v1.652l-.035.241v.241l-.034.241v.275l-.035.241v.241l-.034.275-.035.275-.034.275-.034.275-.035.275-.034.275h-26.427l.173.585.242.551.276.516.311.482.381.482.415.413.449.413.484.378.554.344.554.275.588.275.588.206.657.138.622.103.692.069.691.035h.381l.38-.035.347-.034.38-.069.346-.069.346-.069.346-.103.311-.138.347-.104.311-.172.311-.138.311-.207.311-.206.311-.206.311-.241.311-.241h12.314Zm-25.597-10.842h15.946l-.208-.723-.242-.654-.312-.62-.312-.585-.38-.551-.415-.482-.484-.448-.484-.413-.518-.379-.588-.31-.588-.275-.623-.207-.692-.172-.691-.103-.727-.069-.761-.034-.691.034-.692.069-.657.103-.622.172-.623.241-.588.275-.554.31-.554.378-.483.413-.484.447-.415.482-.415.551-.346.585-.312.62-.242.654-.242.688h0Z"/>
    <polygon class="cls-2" points="428.473 81.494 438.124 81.494 438.159 81.976 438.228 82.389 438.331 82.802 438.47 83.181 438.609 83.526 438.817 83.835 439.024 84.145 439.266 84.386 439.542 84.627 439.854 84.833 440.165 85.005 440.511 85.143 440.926 85.246 441.341 85.349 441.791 85.384 442.241 85.384 442.691 85.384 443.105 85.349 443.52 85.281 443.867 85.177 444.212 85.074 444.524 84.937 444.8 84.764 445.078 84.593 445.285 84.386 445.492 84.145 445.665 83.869 445.803 83.594 445.907 83.284 445.977 82.975 446.011 82.631 446.045 82.252 446.011 81.976 445.942 81.736 445.872 81.46 445.734 81.219 445.561 80.978 445.354 80.772 445.112 80.531 444.834 80.324 444.524 80.118 444.143 79.946 443.762 79.739 443.313 79.567 442.863 79.395 442.344 79.223 441.791 79.085 441.238 78.947 440.753 78.81 440.338 78.707 439.923 78.603 439.542 78.5 439.197 78.431 438.851 78.328 438.539 78.259 438.263 78.156 437.052 77.777 435.911 77.364 435.357 77.158 434.838 76.917 434.354 76.676 433.87 76.435 433.42 76.159 432.97 75.885 432.555 75.609 432.175 75.334 431.794 75.024 431.449 74.714 431.103 74.404 430.791 74.06 430.514 73.716 430.238 73.372 429.996 72.993 429.753 72.614 429.546 72.236 429.338 71.823 429.165 71.41 428.993 70.997 428.854 70.549 428.75 70.102 428.647 69.62 428.542 69.138 428.508 68.656 428.439 68.175 428.405 67.658 428.405 67.108 428.439 66.488 428.473 65.903 428.542 65.318 428.612 64.732 428.75 64.182 428.889 63.631 429.062 63.08 429.27 62.564 429.477 62.082 429.753 61.6 430.03 61.118 430.307 60.671 430.653 60.223 430.998 59.81 431.414 59.397 431.829 58.985 432.245 58.606 432.694 58.261 433.178 57.952 433.663 57.642 434.146 57.367 434.665 57.091 435.219 56.885 435.772 56.678 436.326 56.472 436.914 56.334 437.537 56.197 438.159 56.093 438.782 55.99 439.439 55.955 440.096 55.921 440.788 55.886 441.341 55.921 441.895 55.921 442.414 55.99 442.932 56.024 443.416 56.093 443.901 56.197 444.35 56.3 444.8 56.437 445.249 56.575 445.665 56.747 446.115 56.919 446.53 57.16 446.945 57.367 447.36 57.608 447.775 57.883 448.156 58.193 448.156 56.678 455.626 56.678 455.626 66.798 446.149 66.798 446.08 66.385 445.977 66.006 445.872 65.627 445.769 65.318 445.63 65.008 445.457 64.767 445.285 64.526 445.112 64.32 444.904 64.147 444.697 64.01 444.419 63.872 444.143 63.769 443.867 63.665 443.555 63.631 443.209 63.596 442.829 63.562 442.483 63.596 442.137 63.631 441.791 63.665 441.48 63.769 441.168 63.872 440.892 64.01 440.615 64.147 440.372 64.32 440.165 64.526 439.957 64.732 439.819 64.939 439.681 65.18 439.577 65.421 439.508 65.662 439.439 65.937 439.439 66.247 439.473 66.591 439.508 66.935 439.577 67.245 439.715 67.555 439.854 67.83 440.027 68.106 440.235 68.346 440.511 68.553 440.788 68.76 441.204 68.966 441.687 69.207 442.275 69.413 442.967 69.655 443.762 69.895 444.627 70.136 445.596 70.377 447.187 70.824 448.674 71.306 449.366 71.548 450.023 71.788 450.646 72.064 451.234 72.304 451.788 72.58 452.306 72.855 452.826 73.131 453.275 73.406 453.69 73.716 454.105 73.991 454.485 74.301 454.796 74.611 455.108 74.921 455.384 75.265 455.662 75.609 455.904 75.988 456.112 76.366 456.319 76.779 456.526 77.192 456.7 77.64 456.837 78.087 456.976 78.534 457.08 79.016 457.149 79.532 457.218 80.049 457.288 80.565 457.288 81.116 457.322 81.667 457.288 82.321 457.252 82.94 457.183 83.56 457.08 84.145 456.941 84.73 456.803 85.315 456.63 85.866 456.388 86.382 456.146 86.933 455.904 87.415 455.592 87.931 455.247 88.379 454.901 88.861 454.52 89.308 454.105 89.721 453.656 90.134 453.206 90.547 452.721 90.891 452.238 91.235 451.718 91.545 451.164 91.855 450.611 92.13 450.058 92.371 449.47 92.577 448.882 92.75 448.259 92.922 447.636 93.06 446.979 93.197 446.323 93.266 445.63 93.335 444.939 93.369 444.212 93.369 443.624 93.369 443.071 93.335 442.517 93.301 441.963 93.232 441.445 93.128 440.926 92.99 440.407 92.887 439.923 92.716 439.439 92.543 438.989 92.337 438.505 92.13 438.055 91.855 437.606 91.614 437.19 91.304 436.741 90.994 436.326 90.65 436.326 92.474 428.473 92.474 428.473 81.494 428.473 81.494"/>
    <path class="cls-3" d="m594.817,99.393l-.068-1.343-.104-1.308-11.518-1.927-.173-1.067-.242-1.101-.241-1.067-.277-1.067-.311-1.033-.312-1.067-.346-1.033-.381-1.032,8.994-7.4-.554-1.204-.588-1.171-.623-1.17-.657-1.17-.691-1.136-.691-1.102-.726-1.102-.761-1.101-10.931,4.061-.727-.861-.727-.826-.761-.792-.762-.791-.795-.757-.796-.757-.83-.723-.865-.723,4.082-10.876-1.072-.757-1.142-.723-1.106-.688-1.142-.688-1.176-.654-1.177-.62-1.176-.586-1.211-.55-7.436,8.949-1.037-.379-1.038-.344-1.072-.31-1.038-.309-1.072-.275-1.072-.241-1.072-.207-1.106-.207-1.938-11.462-1.314-.103-1.349-.069-1.314-.069h-2.663l-1.314.069-1.35.069-1.314.103-1.937,11.462-1.071.207-1.107.207-1.072.241-1.072.275-1.038.309-1.071.31-1.038.344-1.038.379-7.437-8.949-1.211.55-1.176.586-1.176.62-1.176.654-1.143.688-1.106.688-1.106.723-1.107.757,4.082,10.876-.864.723-.831.723-.796.757-.795.757-.761.791-.762.792-.727.826-.691.861-10.965-4.061-.761,1.101-.726,1.102-.691,1.102-.692,1.136-.657,1.17-.623,1.17-.588,1.171-.553,1.204,8.993,7.4-.381,1.032-.346,1.033-.311,1.067-.311,1.033-.277,1.067-.242,1.067-.207,1.101-.208,1.067-11.519,1.927-.103,1.308-.069,1.343-.034,1.308-.035,1.343.035,1.308.034,1.308.069,1.342.103,1.308,11.519,1.928.208,1.102.207,1.066.242,1.066.277,1.067.311,1.067.311,1.033.346,1.031.381,1.033-8.993,7.4.553,1.205.588,1.17.623,1.17.657,1.17.692,1.137.691,1.102.726,1.135.761,1.066,10.965-4.061.691.861.727.824.762.793.761.791.795.758.796.758.831.723.864.723-4.082,10.875,1.107.758,1.106.723,1.106.689,1.143.687,1.176.654,1.176.619,1.176.586,1.211.551,7.437-8.949,1.038.379,1.038.344,1.071.344,1.038.275,1.072.275,1.072.24,1.107.242,1.071.172,1.937,11.461,1.314.103,1.35.068,1.314.07h2.663l1.314-.07,1.349-.068,1.314-.103,1.938-11.461,1.106-.172,1.072-.242,1.072-.24,1.072-.275,1.038-.275,1.072-.344,1.038-.344,1.037-.379,7.436,8.949,1.211-.551,1.176-.586,1.177-.619,1.176-.654,1.142-.687,1.106-.689,1.142-.723,1.072-.758-4.082-10.875.865-.723.83-.723.796-.758.795-.758.762-.791.761-.793.727-.824.727-.861,10.931,4.061.761-1.066.726-1.135.691-1.102.691-1.137.657-1.17.623-1.17.588-1.17.554-1.205-8.994-7.4.381-1.033.346-1.031.312-1.033.311-1.067.277-1.067.241-1.066.242-1.066.173-1.102,11.518-1.928.104-1.308.068-1.342.069-1.308v-2.65l-.069-1.308Zm-20.165,4.13l-.174,2.237-.311,2.272-.449,2.203-.588,2.203-.727,2.168-.865,2.135-1.037,2.064-1.142,1.996-1.314,1.963-1.452,1.857-1.592,1.789-1.729,1.687-1.902,1.584-2.006,1.514-2.18,1.377-6.434,10.67-3.977-6.574-.935.172-.968.172-.969.172-.969.103-.969.103-.969.068-.968.035h-1.972l-.969-.035-.969-.068-.969-.103-.969-.103-.968-.172-.969-.172-.934-.172-3.978,6.574-6.433-10.67-2.145-1.377-2.04-1.514-1.903-1.584-1.729-1.687-1.591-1.789-1.453-1.857-1.314-1.963-1.142-1.996-1.037-2.064-.864-2.135-.728-2.168-.588-2.203-.449-2.203-.31-2.272-.174-2.237v-2.272l.103-2.271.277-2.237.381-2.237.553-2.203.692-2.168.83-2.134.968-2.065,1.107-2.031,1.245-1.962,1.418-1.859,1.522-1.824,1.66-1.687,1.833-1.618,1.937-1.514,2.109-1.411,2.214-1.274v-7.882h33.518v7.882l2.248,1.274,2.076,1.411,1.936,1.514,1.834,1.618,1.66,1.687,1.521,1.824,1.419,1.859,1.244,1.962,1.107,2.031.969,2.065.83,2.134.691,2.168.554,2.203.381,2.237.276,2.237.139,2.271-.034,2.272Z"/>
    <polygon class="cls-2" points="554.208 64.457 523.908 64.457 523.908 72.408 531.344 72.408 531.344 70.79 535.323 70.79 535.323 85.625 533.731 85.625 533.731 91.992 544.35 91.992 544.35 85.625 542.759 85.625 542.759 70.824 546.772 70.824 546.772 72.408 554.208 72.408 554.208 64.457 554.208 64.457"/>
    <polygon class="cls-2" points="522.558 76.641 522.558 83.009 524.184 83.009 524.184 108.41 522.558 108.376 522.558 114.744 533.212 114.744 533.212 108.376 531.622 108.376 531.622 102.043 546.495 102.043 546.495 108.376 544.904 108.376 544.904 114.744 555.523 114.744 555.523 108.376 553.931 108.376 553.931 82.975 555.523 83.009 555.523 76.641 544.904 76.641 544.904 83.009 546.495 83.009 546.495 95.676 531.622 95.676 531.622 83.009 533.212 83.009 533.212 76.641 522.558 76.641 522.558 76.641"/>
    <polygon class="cls-2" points="539.058 120.733 550.749 140.11 566.073 114.71 569.878 114.71 569.878 108.376 557.149 108.376 557.149 114.71 558.636 114.71 550.749 127.788 539.023 108.376 527.331 127.788 519.48 114.71 520.967 114.71 520.967 108.376 508.204 108.376 508.204 114.71 512.043 114.71 527.367 140.11 539.058 120.733 539.058 120.733"/>
  </g>
  <g>
    <polygon class="cls-1" points="73.799 36.603 73.799 9.447 69.301 9.447 69.301 -.053 89.399 -.053 89.399 9.447 85.213 9.447 85.213 17.812 98.876 17.812 98.876 9.447 94.587 9.447 94.587 -.053 114.788 -.053 114.788 9.447 110.222 9.447 110.222 36.603 114.788 36.603 114.788 46.139 94.587 46.139 94.587 36.603 98.876 36.603 98.876 27.31 85.213 27.31 85.213 36.603 89.467 36.603 89.467 46.139 69.301 46.139 69.301 36.603 73.799 36.603 73.799 36.603"/>
    <polygon class="cls-1" points="152.134 250.53 152.134 223.374 147.637 223.374 147.637 213.874 167.734 213.874 167.734 223.374 163.549 223.374 163.549 231.739 177.212 231.739 177.212 223.374 172.923 223.374 172.923 213.874 193.123 213.874 193.123 223.374 188.558 223.374 188.558 250.53 193.123 250.53 193.123 260.065 172.923 260.065 172.923 250.53 177.212 250.53 177.212 241.237 163.549 241.237 163.549 250.53 167.803 250.53 167.803 260.065 147.637 260.065 147.637 250.53 152.134 250.53 152.134 250.53"/>
    <polygon class="cls-1" points="36.734 88.405 9.577 88.405 9.577 92.902 .077 92.902 .077 72.805 9.577 72.805 9.577 76.99 17.943 76.99 17.943 63.327 9.577 63.327 9.577 67.616 .077 67.616 .077 47.416 9.577 47.416 9.577 51.981 36.734 51.981 36.734 47.416 46.269 47.416 46.269 67.616 36.734 67.616 36.734 63.327 27.441 63.327 27.441 76.99 36.734 76.99 36.734 72.736 46.269 72.736 46.269 92.902 36.734 92.902 36.734 88.405 36.734 88.405"/>
    <polygon class="cls-1" points="631.542 114.439 604.386 114.439 604.386 118.936 594.886 118.936 594.886 98.839 604.386 98.839 604.386 103.024 612.751 103.024 612.751 89.361 604.386 89.361 604.386 93.65 594.886 93.65 594.886 73.449 604.386 73.449 604.386 78.015 631.542 78.015 631.542 73.449 641.078 73.449 641.078 93.65 631.542 93.65 631.542 89.361 622.249 89.361 622.249 103.024 631.542 103.024 631.542 98.77 641.078 98.77 641.078 118.936 631.542 118.936 631.542 114.439 631.542 114.439"/>
  </g>
</svg>